<?xml version="1.0" encoding="utf-8"?>
<!-- Generator: Adobe Illustrator 19.0.0, SVG Export Plug-In . SVG Version: 6.00 Build 0)  -->
<svg version="1.1" xmlns="http://www.w3.org/2000/svg" xmlns:xlink="http://www.w3.org/1999/xlink" x="0px" y="0px"
	 viewBox="0 0 173.2 55.3" style="enable-background:new 0 0 173.2 55.3;" xml:space="preserve">
<style type="text/css">
	.st0{display:none;}
	.st1{display:inline;}
	.st2{fill:#2F99EA;}
	.st3{fill:#FFFFFF;}
</style>
<g id="Layer_1" class="st0">
	<g id="XMLID_2_" class="st1">
		<polygon id="XMLID_10_" class="st2" points="11.3,-23.9 11.3,-60.1 2.2,-55.1 2.2,-18.8 		"/>
		<polygon id="XMLID_9_" class="st2" points="20.2,-18.8 46.1,-37 37.2,-42 11.3,-23.8 		"/>
		<polygon id="XMLID_8_" class="st2" points="38.9,-52 13,-70.1 11.3,-60.1 37.2,-42 		"/>
		<g>
			<path id="XMLID_1206_" d="M55-57h4.5v24.1H55V-57z"/>
			<path id="XMLID_1208_" d="M62.3-52.2h4.4v2.4c1.3-1.7,3.3-2.8,5.8-2.8c4.9,0,7.7,3,7.7,8.3v11.5h-4.5v-11c0-3-1.5-4.9-4.4-4.9
				c-2.5,0-4.5,1.8-4.5,5.2v10.6h-4.5V-52.2z"/>
			<path id="XMLID_1210_" d="M82.1-52.2h3.3v-2.9l4.5-3.1v6h3.9v4h-3.9v7.2c0,3.4,0.5,3.9,3.9,3.9v4.2h-0.6c-6,0-7.8-1.9-7.8-8.1
				v-7.3h-3.3V-52.2z"/>
			<path id="XMLID_1212_" d="M95.3-42.5c0-5.6,4.4-10.1,10-10.1c5.7,0,9.9,4.2,9.9,9.9v1.7H99.5c0.6,2.7,2.8,4.6,5.9,4.6
				c2.5,0,4.4-1.3,5.3-3.4l3.7,2.1c-1.7,3.1-4.7,5.2-9,5.2C99.4-32.5,95.3-36.9,95.3-42.5z M99.8-44.7h11c-0.7-2.6-2.6-4-5.4-4
				C102.6-48.7,100.6-47.1,99.8-44.7z"/>
			<path id="XMLID_1215_" d="M117.2-57.3h4.5v24.4h-4.5V-57.3z"/>
			<path id="XMLID_1217_" d="M124.3-57.3h4.5v24.4h-4.5V-57.3z"/>
			<path id="XMLID_1219_" d="M133.6-59.7c1.7,0,2.8,1.1,2.8,2.8c0,1.7-1.1,2.8-2.8,2.8c-1.8,0-2.8-1.1-2.8-2.8
				C130.8-58.6,131.9-59.7,133.6-59.7z M131.4-52.2h4.5v19.3h-4.5V-52.2z"/>
			<path id="XMLID_1222_" d="M140.6-37.9c1.7,0,2.7,1.1,2.7,2.7c0,1.6-1,2.7-2.7,2.7c-1.7,0-2.7-1.1-2.7-2.7
				C137.9-36.8,138.9-37.9,140.6-37.9z"/>
			<path id="XMLID_1224_" d="M144.6-42.5c0-6.4,4.7-10.1,9.6-10.1c2.5,0,4.8,1,6.2,2.7v-2.3h4.5v19.3h-4.5v-2.5
				c-1.4,1.8-3.7,2.9-6.3,2.9C149.5-32.5,144.6-36.2,144.6-42.5z M160.6-42.6c0-3.3-2.4-5.9-5.8-5.9c-3.3,0-5.8,2.6-5.8,5.9
				c0,3.4,2.5,6,5.8,6C158.2-36.6,160.6-39.2,160.6-42.6z"/>
			<path id="XMLID_1227_" d="M169.6-59.7c1.7,0,2.8,1.1,2.8,2.8c0,1.7-1.1,2.8-2.8,2.8c-1.8,0-2.8-1.1-2.8-2.8
				C166.8-58.6,167.9-59.7,169.6-59.7z M167.4-52.2h4.5v19.3h-4.5V-52.2z"/>
		</g>
		<g id="XMLID_1_">
			<path id="XMLID_1084_" d="M55-57h4.5v24.1H55V-57z"/>
			<path id="XMLID_1086_" d="M62.3-52.2h4.4v2.4c1.3-1.7,3.3-2.8,5.8-2.8c4.9,0,7.7,3,7.7,8.3v11.5h-4.5v-11c0-3-1.5-4.9-4.4-4.9
				c-2.5,0-4.5,1.8-4.5,5.2v10.6h-4.5V-52.2z"/>
			<path id="XMLID_1088_" d="M82.1-52.2h3.3v-2.9l4.5-3.1v6h3.9v4h-3.9v7.2c0,3.4,0.5,3.9,3.9,3.9v4.2h-0.6c-6,0-7.8-1.9-7.8-8.1
				v-7.3h-3.3V-52.2z"/>
			<path id="XMLID_1090_" d="M95.3-42.5c0-5.6,4.4-10.1,10-10.1c5.7,0,9.9,4.2,9.9,9.9v1.7H99.5c0.6,2.7,2.8,4.6,5.9,4.6
				c2.5,0,4.4-1.3,5.3-3.4l3.7,2.1c-1.7,3.1-4.7,5.2-9,5.2C99.4-32.5,95.3-36.9,95.3-42.5z M99.8-44.7h11c-0.7-2.6-2.6-4-5.4-4
				C102.6-48.7,100.6-47.1,99.8-44.7z"/>
			<path id="XMLID_1093_" d="M117.2-57.3h4.5v24.4h-4.5V-57.3z"/>
			<path id="XMLID_1095_" d="M124.3-57.3h4.5v24.4h-4.5V-57.3z"/>
			<path id="XMLID_1097_" d="M133.6-59.7c1.7,0,2.8,1.1,2.8,2.8c0,1.7-1.1,2.8-2.8,2.8c-1.8,0-2.8-1.1-2.8-2.8
				C130.8-58.6,131.9-59.7,133.6-59.7z M131.4-52.2h4.5v19.3h-4.5V-52.2z"/>
			<path id="XMLID_1100_" d="M140.6-37.9c1.7,0,2.7,1.1,2.7,2.7c0,1.6-1,2.7-2.7,2.7c-1.7,0-2.7-1.1-2.7-2.7
				C137.9-36.8,138.9-37.9,140.6-37.9z"/>
			<path id="XMLID_1102_" d="M144.6-42.5c0-6.4,4.7-10.1,9.6-10.1c2.5,0,4.8,1,6.2,2.7v-2.3h4.5v19.3h-4.5v-2.5
				c-1.4,1.8-3.7,2.9-6.3,2.9C149.5-32.5,144.6-36.2,144.6-42.5z M160.6-42.6c0-3.3-2.4-5.9-5.8-5.9c-3.3,0-5.8,2.6-5.8,5.9
				c0,3.4,2.5,6,5.8,6C158.2-36.6,160.6-39.2,160.6-42.6z"/>
			<path id="XMLID_1105_" d="M169.6-59.7c1.7,0,2.8,1.1,2.8,2.8c0,1.7-1.1,2.8-2.8,2.8c-1.8,0-2.8-1.1-2.8-2.8
				C166.8-58.6,167.9-59.7,169.6-59.7z M167.4-52.2h4.5v19.3h-4.5V-52.2z"/>
		</g>
	</g>
</g>
<g id="Layer_2" class="st0">
	<g class="st1">
		<path id="XMLID_1230_" d="M191.5-67.7h4.5v24.1h-4.5V-67.7z"/>
		<path id="XMLID_1232_" d="M198.9-62.9h4.4v2.4c1.3-1.7,3.3-2.8,5.8-2.8c4.9,0,7.7,3,7.7,8.3v11.5h-4.5v-11c0-3-1.5-4.9-4.4-4.9
			c-2.5,0-4.5,1.8-4.5,5.2v10.6h-4.5V-62.9z"/>
		<path id="XMLID_1234_" d="M218.6-62.9h3.3v-2.9l4.5-3.1v6h3.9v4h-3.9v7.2c0,3.4,0.5,3.9,3.9,3.9v4.2h-0.6c-6,0-7.8-1.9-7.8-8.1
			v-7.3h-3.3V-62.9z"/>
		<path id="XMLID_1236_" d="M231.8-53.2c0-5.6,4.4-10.1,10-10.1c5.7,0,9.9,4.2,9.9,9.9v1.7h-15.7c0.6,2.7,2.8,4.6,5.9,4.6
			c2.5,0,4.4-1.3,5.3-3.4l3.7,2.1c-1.7,3.1-4.7,5.2-9,5.2C235.9-43.2,231.8-47.7,231.8-53.2z M236.3-55.4h11c-0.7-2.6-2.6-4-5.4-4
			C239.2-59.4,237.1-57.8,236.3-55.4z"/>
		<path id="XMLID_1239_" d="M253.8-68.1h4.5v24.4h-4.5V-68.1z"/>
		<path id="XMLID_1241_" d="M260.8-68.1h4.5v24.4h-4.5V-68.1z"/>
		<path id="XMLID_1243_" d="M270.1-70.5c1.7,0,2.8,1.1,2.8,2.8c0,1.7-1.1,2.8-2.8,2.8c-1.8,0-2.8-1.1-2.8-2.8
			C267.3-69.3,268.4-70.5,270.1-70.5z M267.9-62.9h4.5v19.3h-4.5V-62.9z"/>
		<path id="XMLID_1246_" class="st2" d="M277.1-48.6c1.7,0,2.7,1.1,2.7,2.7c0,1.6-1,2.7-2.7,2.7c-1.7,0-2.7-1.1-2.7-2.7
			C274.4-47.5,275.4-48.6,277.1-48.6z"/>
		<path id="XMLID_1248_" d="M281.2-53.3c0-6.4,4.7-10.1,9.6-10.1c2.5,0,4.8,1,6.2,2.7v-2.3h4.5v19.3h-4.5v-2.5
			c-1.4,1.8-3.7,2.9-6.3,2.9C286-43.2,281.2-46.9,281.2-53.3z M297.2-53.3c0-3.3-2.4-5.9-5.8-5.9c-3.3,0-5.8,2.6-5.8,5.9
			c0,3.4,2.5,6,5.8,6C294.7-47.3,297.2-50,297.2-53.3z"/>
		<path id="XMLID_1251_" d="M306.2-70.5c1.7,0,2.8,1.1,2.8,2.8c0,1.7-1.1,2.8-2.8,2.8c-1.8,0-2.8-1.1-2.8-2.8
			C303.4-69.3,304.5-70.5,306.2-70.5z M303.9-62.9h4.5v19.3h-4.5V-62.9z"/>
	</g>
	<g id="XMLID_3_" class="st1">
		<path id="XMLID_1108_" d="M191.5-67.7h4.5v24.1h-4.5V-67.7z"/>
		<path id="XMLID_1110_" d="M198.9-62.9h4.4v2.4c1.3-1.7,3.3-2.8,5.8-2.8c4.9,0,7.7,3,7.7,8.3v11.5h-4.5v-11c0-3-1.5-4.9-4.4-4.9
			c-2.5,0-4.5,1.8-4.5,5.2v10.6h-4.5V-62.9z"/>
		<path id="XMLID_1112_" d="M218.6-62.9h3.3v-2.9l4.5-3.1v6h3.9v4h-3.9v7.2c0,3.4,0.5,3.9,3.9,3.9v4.2h-0.6c-6,0-7.8-1.9-7.8-8.1
			v-7.3h-3.3V-62.9z"/>
		<path id="XMLID_1114_" d="M231.8-53.2c0-5.6,4.4-10.1,10-10.1c5.7,0,9.9,4.2,9.9,9.9v1.7h-15.7c0.6,2.7,2.8,4.6,5.9,4.6
			c2.5,0,4.4-1.3,5.3-3.4l3.7,2.1c-1.7,3.1-4.7,5.2-9,5.2C235.9-43.2,231.8-47.7,231.8-53.2z M236.3-55.4h11c-0.7-2.6-2.6-4-5.4-4
			C239.2-59.4,237.1-57.8,236.3-55.4z"/>
		<path id="XMLID_1117_" d="M253.8-68.1h4.5v24.4h-4.5V-68.1z"/>
		<path id="XMLID_1119_" d="M260.8-68.1h4.5v24.4h-4.5V-68.1z"/>
		<path id="XMLID_1121_" d="M270.1-70.5c1.7,0,2.8,1.1,2.8,2.8c0,1.7-1.1,2.8-2.8,2.8c-1.8,0-2.8-1.1-2.8-2.8
			C267.3-69.3,268.4-70.5,270.1-70.5z M267.9-62.9h4.5v19.3h-4.5V-62.9z"/>
		<path id="XMLID_1124_" class="st2" d="M277.1-48.6c1.7,0,2.7,1.1,2.7,2.7c0,1.6-1,2.7-2.7,2.7c-1.7,0-2.7-1.1-2.7-2.7
			C274.4-47.5,275.4-48.6,277.1-48.6z"/>
		<path id="XMLID_1126_" d="M281.2-53.3c0-6.4,4.7-10.1,9.6-10.1c2.5,0,4.8,1,6.2,2.7v-2.3h4.5v19.3h-4.5v-2.5
			c-1.4,1.8-3.7,2.9-6.3,2.9C286-43.2,281.2-46.9,281.2-53.3z M297.2-53.3c0-3.3-2.4-5.9-5.8-5.9c-3.3,0-5.8,2.6-5.8,5.9
			c0,3.4,2.5,6,5.8,6C294.7-47.3,297.2-50,297.2-53.3z"/>
		<path id="XMLID_1129_" d="M306.2-70.5c1.7,0,2.8,1.1,2.8,2.8c0,1.7-1.1,2.8-2.8,2.8c-1.8,0-2.8-1.1-2.8-2.8
			C303.4-69.3,304.5-70.5,306.2-70.5z M303.9-62.9h4.5v19.3h-4.5V-62.9z"/>
	</g>
</g>
<g id="Layer_3" class="st0">
	<g id="XMLID_306_" class="st1">
		<polygon id="XMLID_310_" class="st2" points="13.2,118.7 13.2,82.5 4,87.5 4,123.7 		"/>
		<polygon id="XMLID_309_" class="st2" points="22,123.7 47.9,105.6 39.1,100.6 13.2,118.8 		"/>
		<polygon id="XMLID_308_" class="st2" points="40.7,90.6 14.8,72.5 13.2,82.5 39.1,100.6 		"/>
	</g>
</g>
<g id="Layer_4" class="st0">
	<g class="st1">
		<path id="XMLID_1254_" class="st3" d="M192.1-23h4.5V1.1h-4.5V-23z"/>
		<path id="XMLID_1256_" class="st3" d="M199.4-18.2h4.4v2.4c1.3-1.7,3.3-2.8,5.8-2.8c4.9,0,7.7,3,7.7,8.3V1.1h-4.5v-11
			c0-3-1.5-4.9-4.4-4.9c-2.5,0-4.5,1.8-4.5,5.2V1.1h-4.5V-18.2z"/>
		<path id="XMLID_1258_" class="st3" d="M219.2-18.2h3.3v-2.9l4.5-3.1v6h3.9v4H227V-7c0,3.4,0.5,3.9,3.9,3.9v4.2h-0.6
			c-6,0-7.8-1.9-7.8-8.1v-7.3h-3.3V-18.2z"/>
		<path id="XMLID_1260_" class="st3" d="M232.4-8.5c0-5.6,4.4-10.1,10-10.1c5.7,0,9.9,4.2,9.9,9.9V-7h-15.7c0.6,2.7,2.8,4.6,5.9,4.6
			c2.5,0,4.4-1.3,5.3-3.4l3.7,2.1c-1.7,3.1-4.7,5.2-9,5.2C236.5,1.5,232.4-2.9,232.4-8.5z M236.9-10.7h11c-0.7-2.6-2.6-4-5.4-4
			C239.8-14.7,237.7-13.1,236.9-10.7z"/>
		<path id="XMLID_1263_" class="st3" d="M254.4-23.3h4.5V1.1h-4.5V-23.3z"/>
		<path id="XMLID_1265_" class="st3" d="M261.4-23.3h4.5V1.1h-4.5V-23.3z"/>
		<path id="XMLID_1267_" class="st3" d="M270.7-25.7c1.7,0,2.8,1.1,2.8,2.8c0,1.7-1.1,2.8-2.8,2.8c-1.8,0-2.8-1.1-2.8-2.8
			C267.9-24.6,269-25.7,270.7-25.7z M268.5-18.2h4.5V1.1h-4.5V-18.2z"/>
		<path id="XMLID_1270_" class="st2" d="M277.7-3.9c1.7,0,2.7,1.1,2.7,2.7c0,1.6-1,2.7-2.7,2.7c-1.7,0-2.7-1.1-2.7-2.7
			C275-2.8,276-3.9,277.7-3.9z"/>
		<path id="XMLID_1272_" class="st3" d="M281.7-8.5c0-6.4,4.7-10.1,9.6-10.1c2.5,0,4.8,1,6.2,2.7v-2.3h4.5V1.1h-4.5v-2.5
			c-1.4,1.8-3.7,2.9-6.3,2.9C286.6,1.5,281.7-2.2,281.7-8.5z M297.8-8.6c0-3.3-2.4-5.9-5.8-5.9c-3.3,0-5.8,2.6-5.8,5.9
			c0,3.4,2.5,6,5.8,6C295.3-2.6,297.8-5.3,297.8-8.6z"/>
		<path id="XMLID_1275_" class="st3" d="M306.8-25.7c1.7,0,2.8,1.1,2.8,2.8c0,1.7-1.1,2.8-2.8,2.8c-1.8,0-2.8-1.1-2.8-2.8
			C304-24.6,305-25.7,306.8-25.7z M304.5-18.2h4.5V1.1h-4.5V-18.2z"/>
	</g>
	<g id="XMLID_636_" class="st1">
		<path id="XMLID_1132_" class="st3" d="M192.1-23h4.5V1.1h-4.5V-23z"/>
		<path id="XMLID_1134_" class="st3" d="M199.4-18.2h4.4v2.4c1.3-1.7,3.3-2.8,5.8-2.8c4.9,0,7.7,3,7.7,8.3V1.1h-4.5v-11
			c0-3-1.5-4.9-4.4-4.9c-2.5,0-4.5,1.8-4.5,5.2V1.1h-4.5V-18.2z"/>
		<path id="XMLID_1136_" class="st3" d="M219.2-18.2h3.3v-2.9l4.5-3.1v6h3.9v4H227V-7c0,3.4,0.5,3.9,3.9,3.9v4.2h-0.6
			c-6,0-7.8-1.9-7.8-8.1v-7.3h-3.3V-18.2z"/>
		<path id="XMLID_1138_" class="st3" d="M232.4-8.5c0-5.6,4.4-10.1,10-10.1c5.7,0,9.9,4.2,9.9,9.9V-7h-15.7c0.6,2.7,2.8,4.6,5.9,4.6
			c2.5,0,4.4-1.3,5.3-3.4l3.7,2.1c-1.7,3.1-4.7,5.2-9,5.2C236.5,1.5,232.4-2.9,232.4-8.5z M236.9-10.7h11c-0.7-2.6-2.6-4-5.4-4
			C239.8-14.7,237.7-13.1,236.9-10.7z"/>
		<path id="XMLID_1141_" class="st3" d="M254.4-23.3h4.5V1.1h-4.5V-23.3z"/>
		<path id="XMLID_1143_" class="st3" d="M261.4-23.3h4.5V1.1h-4.5V-23.3z"/>
		<path id="XMLID_1145_" class="st3" d="M270.7-25.7c1.7,0,2.8,1.1,2.8,2.8c0,1.7-1.1,2.8-2.8,2.8c-1.8,0-2.8-1.1-2.8-2.8
			C267.9-24.6,269-25.7,270.7-25.7z M268.5-18.2h4.5V1.1h-4.5V-18.2z"/>
		<path id="XMLID_1148_" class="st2" d="M277.7-3.9c1.7,0,2.7,1.1,2.7,2.7c0,1.6-1,2.7-2.7,2.7c-1.7,0-2.7-1.1-2.7-2.7
			C275-2.8,276-3.9,277.7-3.9z"/>
		<path id="XMLID_1150_" class="st3" d="M281.7-8.5c0-6.4,4.7-10.1,9.6-10.1c2.5,0,4.8,1,6.2,2.7v-2.3h4.5V1.1h-4.5v-2.5
			c-1.4,1.8-3.7,2.9-6.3,2.9C286.6,1.5,281.7-2.2,281.7-8.5z M297.8-8.6c0-3.3-2.4-5.9-5.8-5.9c-3.3,0-5.8,2.6-5.8,5.9
			c0,3.4,2.5,6,5.8,6C295.3-2.6,297.8-5.3,297.8-8.6z"/>
		<path id="XMLID_1153_" class="st3" d="M306.8-25.7c1.7,0,2.8,1.1,2.8,2.8c0,1.7-1.1,2.8-2.8,2.8c-1.8,0-2.8-1.1-2.8-2.8
			C304-24.6,305-25.7,306.8-25.7z M304.5-18.2h4.5V1.1h-4.5V-18.2z"/>
	</g>
</g>
<g id="Layer_5">
	<g id="XMLID_1040_">
		<polygon id="XMLID_1044_" class="st2" points="11.2,48.3 11.2,12 2.1,17.1 2.1,53.3 		"/>
		<polygon id="XMLID_1043_" class="st2" points="20.1,53.3 46,35.2 37.1,30.2 11.2,48.3 		"/>
		<polygon id="XMLID_1042_" class="st2" points="38.8,20.2 12.9,2 11.2,12 37.1,30.2 		"/>
		<g id="XMLID_1205_">
			<path id="XMLID_1278_" class="st3" d="M54.9,15.2h4.5v24.1h-4.5V15.2z"/>
			<path id="XMLID_1280_" class="st3" d="M62.2,20h4.4v2.4c1.3-1.7,3.3-2.8,5.8-2.8c4.9,0,7.7,3,7.7,8.3v11.5h-4.5v-11
				c0-3-1.5-4.9-4.4-4.9c-2.5,0-4.5,1.8-4.5,5.2v10.6h-4.5V20z"/>
			<path id="XMLID_1282_" class="st3" d="M82,20h3.3V17l4.5-3.1v6h3.9v4h-3.9v7.2c0,3.4,0.5,3.9,3.9,3.9v4.2h-0.6
				c-6,0-7.8-1.9-7.8-8.1V24H82V20z"/>
			<path id="XMLID_1284_" class="st3" d="M95.2,29.7c0-5.6,4.4-10.1,10-10.1c5.7,0,9.9,4.2,9.9,9.9v1.7H99.5
				c0.6,2.7,2.8,4.6,5.9,4.6c2.5,0,4.4-1.3,5.3-3.4l3.7,2.1c-1.7,3.1-4.7,5.2-9,5.2C99.3,39.7,95.2,35.2,95.2,29.7z M99.7,27.5h11
				c-0.7-2.6-2.6-4-5.4-4C102.6,23.5,100.5,25.1,99.7,27.5z"/>
			<path id="XMLID_1287_" class="st3" d="M117.1,14.8h4.5v24.4h-4.5V14.8z"/>
			<path id="XMLID_1289_" class="st3" d="M124.2,14.8h4.5v24.4h-4.5V14.8z"/>
			<path id="XMLID_1291_" class="st3" d="M133.5,12.4c1.7,0,2.8,1.1,2.8,2.8c0,1.7-1.1,2.8-2.8,2.8c-1.8,0-2.8-1.1-2.8-2.8
				C130.7,13.6,131.8,12.4,133.5,12.4z M131.3,20h4.5v19.3h-4.5V20z"/>
			<path id="XMLID_1294_" class="st3" d="M140.5,34.3c1.7,0,2.7,1.1,2.7,2.7c0,1.6-1,2.7-2.7,2.7c-1.7,0-2.7-1.1-2.7-2.7
				C137.8,35.4,138.8,34.3,140.5,34.3z"/>
			<path id="XMLID_1296_" class="st3" d="M144.5,29.6c0-6.4,4.7-10.1,9.6-10.1c2.5,0,4.8,1,6.2,2.7V20h4.5v19.3h-4.5v-2.5
				c-1.4,1.8-3.7,2.9-6.3,2.9C149.4,39.7,144.5,36,144.5,29.6z M160.5,29.6c0-3.3-2.4-5.9-5.8-5.9c-3.3,0-5.8,2.6-5.8,5.9
				c0,3.4,2.5,6,5.8,6C158.1,35.6,160.5,32.9,160.5,29.6z"/>
			<path id="XMLID_1299_" class="st3" d="M169.6,12.4c1.7,0,2.8,1.1,2.8,2.8c0,1.7-1.1,2.8-2.8,2.8c-1.8,0-2.8-1.1-2.8-2.8
				C166.7,13.6,167.8,12.4,169.6,12.4z M167.3,20h4.5v19.3h-4.5V20z"/>
		</g>
		<g id="XMLID_1180_">
			<path id="XMLID_1181_" class="st3" d="M54.9,15.2h4.5v24.1h-4.5V15.2z"/>
			<path id="XMLID_1183_" class="st3" d="M62.2,20h4.4v2.4c1.3-1.7,3.3-2.8,5.8-2.8c4.9,0,7.7,3,7.7,8.3v11.5h-4.5v-11
				c0-3-1.5-4.9-4.4-4.9c-2.5,0-4.5,1.8-4.5,5.2v10.6h-4.5V20z"/>
			<path id="XMLID_1185_" class="st3" d="M82,20h3.3V17l4.5-3.1v6h3.9v4h-3.9v7.2c0,3.4,0.5,3.9,3.9,3.9v4.2h-0.6
				c-6,0-7.8-1.9-7.8-8.1V24H82V20z"/>
			<path id="XMLID_1187_" class="st3" d="M95.2,29.7c0-5.6,4.4-10.1,10-10.1c5.7,0,9.9,4.2,9.9,9.9v1.7H99.5
				c0.6,2.7,2.8,4.6,5.9,4.6c2.5,0,4.4-1.3,5.3-3.4l3.7,2.1c-1.7,3.1-4.7,5.2-9,5.2C99.3,39.7,95.2,35.2,95.2,29.7z M99.7,27.5h11
				c-0.7-2.6-2.6-4-5.4-4C102.6,23.5,100.5,25.1,99.7,27.5z"/>
			<path id="XMLID_1190_" class="st3" d="M117.1,14.8h4.5v24.4h-4.5V14.8z"/>
			<path id="XMLID_1192_" class="st3" d="M124.2,14.8h4.5v24.4h-4.5V14.8z"/>
			<path id="XMLID_1194_" class="st3" d="M133.5,12.4c1.7,0,2.8,1.1,2.8,2.8c0,1.7-1.1,2.8-2.8,2.8c-1.8,0-2.8-1.1-2.8-2.8
				C130.7,13.6,131.8,12.4,133.5,12.4z M131.3,20h4.5v19.3h-4.5V20z"/>
			<path id="XMLID_1197_" class="st3" d="M140.5,34.3c1.7,0,2.7,1.1,2.7,2.7c0,1.6-1,2.7-2.7,2.7c-1.7,0-2.7-1.1-2.7-2.7
				C137.8,35.4,138.8,34.3,140.5,34.3z"/>
			<path id="XMLID_1199_" class="st3" d="M144.5,29.6c0-6.4,4.7-10.1,9.6-10.1c2.5,0,4.8,1,6.2,2.7V20h4.5v19.3h-4.5v-2.5
				c-1.4,1.8-3.7,2.9-6.3,2.9C149.4,39.7,144.5,36,144.5,29.6z M160.5,29.6c0-3.3-2.4-5.9-5.8-5.9c-3.3,0-5.8,2.6-5.8,5.9
				c0,3.4,2.5,6,5.8,6C158.1,35.6,160.5,32.9,160.5,29.6z"/>
			<path id="XMLID_1202_" class="st3" d="M169.6,12.4c1.7,0,2.8,1.1,2.8,2.8c0,1.7-1.1,2.8-2.8,2.8c-1.8,0-2.8-1.1-2.8-2.8
				C166.7,13.6,167.8,12.4,169.6,12.4z M167.3,20h4.5v19.3h-4.5V20z"/>
		</g>
		<g id="XMLID_1041_">
			<path id="XMLID_1156_" class="st3" d="M54.9,15.2h4.5v24.1h-4.5V15.2z"/>
			<path id="XMLID_1158_" class="st3" d="M62.2,20h4.4v2.4c1.3-1.7,3.3-2.8,5.8-2.8c4.9,0,7.7,3,7.7,8.3v11.5h-4.5v-11
				c0-3-1.5-4.9-4.4-4.9c-2.5,0-4.5,1.8-4.5,5.2v10.6h-4.5V20z"/>
			<path id="XMLID_1160_" class="st3" d="M82,20h3.3V17l4.5-3.1v6h3.9v4h-3.9v7.2c0,3.4,0.5,3.9,3.9,3.9v4.2h-0.6
				c-6,0-7.8-1.9-7.8-8.1V24H82V20z"/>
			<path id="XMLID_1162_" class="st3" d="M95.2,29.7c0-5.6,4.4-10.1,10-10.1c5.7,0,9.9,4.2,9.9,9.9v1.7H99.5
				c0.6,2.7,2.8,4.6,5.9,4.6c2.5,0,4.4-1.3,5.3-3.4l3.7,2.1c-1.7,3.1-4.7,5.2-9,5.2C99.3,39.7,95.2,35.2,95.2,29.7z M99.7,27.5h11
				c-0.7-2.6-2.6-4-5.4-4C102.6,23.5,100.5,25.1,99.7,27.5z"/>
			<path id="XMLID_1165_" class="st3" d="M117.1,14.8h4.5v24.4h-4.5V14.8z"/>
			<path id="XMLID_1167_" class="st3" d="M124.2,14.8h4.5v24.4h-4.5V14.8z"/>
			<path id="XMLID_1169_" class="st3" d="M133.5,12.4c1.7,0,2.8,1.1,2.8,2.8c0,1.7-1.1,2.8-2.8,2.8c-1.8,0-2.8-1.1-2.8-2.8
				C130.7,13.6,131.8,12.4,133.5,12.4z M131.3,20h4.5v19.3h-4.5V20z"/>
			<path id="XMLID_1172_" class="st3" d="M140.5,34.3c1.7,0,2.7,1.1,2.7,2.7c0,1.6-1,2.7-2.7,2.7c-1.7,0-2.7-1.1-2.7-2.7
				C137.8,35.4,138.8,34.3,140.5,34.3z"/>
			<path id="XMLID_1174_" class="st3" d="M144.5,29.6c0-6.4,4.7-10.1,9.6-10.1c2.5,0,4.8,1,6.2,2.7V20h4.5v19.3h-4.5v-2.5
				c-1.4,1.8-3.7,2.9-6.3,2.9C149.4,39.7,144.5,36,144.5,29.6z M160.5,29.6c0-3.3-2.4-5.9-5.8-5.9c-3.3,0-5.8,2.6-5.8,5.9
				c0,3.4,2.5,6,5.8,6C158.1,35.6,160.5,32.9,160.5,29.6z"/>
			<path id="XMLID_1177_" class="st3" d="M169.6,12.4c1.7,0,2.8,1.1,2.8,2.8c0,1.7-1.1,2.8-2.8,2.8c-1.8,0-2.8-1.1-2.8-2.8
				C166.7,13.6,167.8,12.4,169.6,12.4z M167.3,20h4.5v19.3h-4.5V20z"/>
		</g>
	</g>
</g>
</svg>
