<?xml version="1.0" encoding="utf-8"?>
<!-- Generator: Adobe Illustrator 19.0.0, SVG Export Plug-In . SVG Version: 6.00 Build 0)  -->
<svg version="1.1" xmlns="http://www.w3.org/2000/svg" xmlns:xlink="http://www.w3.org/1999/xlink" x="0px" y="0px"
	 viewBox="0 0 173.2 55.3" style="enable-background:new 0 0 173.2 55.3;" xml:space="preserve">
<style type="text/css">
	.st0{fill:#2F99EA;}
	.st1{display:none;}
	.st2{display:inline;}
	.st3{fill:#FFFFFF;}
</style>
<g id="Layer_1">
	<g id="XMLID_2_">
		<polygon id="XMLID_10_" class="st0" points="11.3,48.6 11.3,12.4 2.2,17.4 2.2,53.6 		"/>
		<polygon id="XMLID_9_" class="st0" points="20.2,53.6 46.1,35.5 37.2,30.5 11.3,48.6 		"/>
		<polygon id="XMLID_8_" class="st0" points="38.9,20.5 13,2.4 11.3,12.4 37.2,30.5 		"/>
		<g id="XMLID_1192_">
			<path id="XMLID_1193_" d="M55,15.5h4.5v24.1H55V15.5z"/>
			<path id="XMLID_1195_" d="M62.3,20.3h4.4v2.4c1.3-1.7,3.3-2.8,5.8-2.8c4.9,0,7.7,3,7.7,8.3v11.5h-4.5v-11c0-3-1.5-4.9-4.4-4.9
				c-2.5,0-4.5,1.8-4.5,5.2v10.6h-4.5V20.3z"/>
			<path id="XMLID_1197_" d="M82.1,20.3h3.3v-2.9l4.5-3.1v6h3.9v4h-3.9v7.2c0,3.4,0.5,3.9,3.9,3.9v4.2h-0.6c-6,0-7.8-1.9-7.8-8.1
				v-7.3h-3.3V20.3z"/>
			<path id="XMLID_1199_" d="M95.3,30c0-5.6,4.4-10.1,10-10.1c5.7,0,9.9,4.2,9.9,9.9v1.7H99.5c0.6,2.7,2.8,4.6,5.9,4.6
				c2.5,0,4.4-1.3,5.3-3.4l3.7,2.1c-1.7,3.1-4.7,5.2-9,5.2C99.4,40,95.3,35.6,95.3,30z M99.8,27.8h11c-0.7-2.6-2.6-4-5.4-4
				C102.6,23.8,100.6,25.4,99.8,27.8z"/>
			<path id="XMLID_1202_" d="M117.2,15.2h4.5v24.4h-4.5V15.2z"/>
			<path id="XMLID_1204_" d="M124.3,15.2h4.5v24.4h-4.5V15.2z"/>
			<path id="XMLID_1206_" d="M133.6,12.8c1.7,0,2.8,1.1,2.8,2.8c0,1.7-1.1,2.8-2.8,2.8c-1.8,0-2.8-1.1-2.8-2.8
				C130.8,13.9,131.9,12.8,133.6,12.8z M131.4,20.3h4.5v19.3h-4.5V20.3z"/>
			<path id="XMLID_1209_" d="M140.6,34.6c1.7,0,2.7,1.1,2.7,2.7c0,1.6-1,2.7-2.7,2.7c-1.7,0-2.7-1.1-2.7-2.7
				C137.9,35.7,138.9,34.6,140.6,34.6z"/>
			<path id="XMLID_1211_" d="M144.6,30c0-6.4,4.7-10.1,9.6-10.1c2.5,0,4.8,1,6.2,2.7v-2.3h4.5v19.3h-4.5v-2.5
				c-1.4,1.8-3.7,2.9-6.3,2.9C149.5,40,144.6,36.3,144.6,30z M160.6,29.9c0-3.3-2.4-5.9-5.8-5.9c-3.3,0-5.8,2.6-5.8,5.9
				c0,3.4,2.5,6,5.8,6C158.2,35.9,160.6,33.2,160.6,29.9z"/>
			<path id="XMLID_1214_" d="M169.6,12.8c1.7,0,2.8,1.1,2.8,2.8c0,1.7-1.1,2.8-2.8,2.8c-1.8,0-2.8-1.1-2.8-2.8
				C166.8,13.9,167.9,12.8,169.6,12.8z M167.4,20.3h4.5v19.3h-4.5V20.3z"/>
		</g>
		<g id="XMLID_1167_">
			<path id="XMLID_1168_" d="M55,15.5h4.5v24.1H55V15.5z"/>
			<path id="XMLID_1170_" d="M62.3,20.3h4.4v2.4c1.3-1.7,3.3-2.8,5.8-2.8c4.9,0,7.7,3,7.7,8.3v11.5h-4.5v-11c0-3-1.5-4.9-4.4-4.9
				c-2.5,0-4.5,1.8-4.5,5.2v10.6h-4.5V20.3z"/>
			<path id="XMLID_1172_" d="M82.1,20.3h3.3v-2.9l4.5-3.1v6h3.9v4h-3.9v7.2c0,3.4,0.5,3.9,3.9,3.9v4.2h-0.6c-6,0-7.8-1.9-7.8-8.1
				v-7.3h-3.3V20.3z"/>
			<path id="XMLID_1174_" d="M95.3,30c0-5.6,4.4-10.1,10-10.1c5.7,0,9.9,4.2,9.9,9.9v1.7H99.5c0.6,2.7,2.8,4.6,5.9,4.6
				c2.5,0,4.4-1.3,5.3-3.4l3.7,2.1c-1.7,3.1-4.7,5.2-9,5.2C99.4,40,95.3,35.6,95.3,30z M99.8,27.8h11c-0.7-2.6-2.6-4-5.4-4
				C102.6,23.8,100.6,25.4,99.8,27.8z"/>
			<path id="XMLID_1177_" d="M117.2,15.2h4.5v24.4h-4.5V15.2z"/>
			<path id="XMLID_1179_" d="M124.3,15.2h4.5v24.4h-4.5V15.2z"/>
			<path id="XMLID_1181_" d="M133.6,12.8c1.7,0,2.8,1.1,2.8,2.8c0,1.7-1.1,2.8-2.8,2.8c-1.8,0-2.8-1.1-2.8-2.8
				C130.8,13.9,131.9,12.8,133.6,12.8z M131.4,20.3h4.5v19.3h-4.5V20.3z"/>
			<path id="XMLID_1184_" d="M140.6,34.6c1.7,0,2.7,1.1,2.7,2.7c0,1.6-1,2.7-2.7,2.7c-1.7,0-2.7-1.1-2.7-2.7
				C137.9,35.7,138.9,34.6,140.6,34.6z"/>
			<path id="XMLID_1186_" d="M144.6,30c0-6.4,4.7-10.1,9.6-10.1c2.5,0,4.8,1,6.2,2.7v-2.3h4.5v19.3h-4.5v-2.5
				c-1.4,1.8-3.7,2.9-6.3,2.9C149.5,40,144.6,36.3,144.6,30z M160.6,29.9c0-3.3-2.4-5.9-5.8-5.9c-3.3,0-5.8,2.6-5.8,5.9
				c0,3.4,2.5,6,5.8,6C158.2,35.9,160.6,33.2,160.6,29.9z"/>
			<path id="XMLID_1189_" d="M169.6,12.8c1.7,0,2.8,1.1,2.8,2.8c0,1.7-1.1,2.8-2.8,2.8c-1.8,0-2.8-1.1-2.8-2.8
				C166.8,13.9,167.9,12.8,169.6,12.8z M167.4,20.3h4.5v19.3h-4.5V20.3z"/>
		</g>
		<g id="XMLID_1_">
			<path id="XMLID_1071_" d="M55,15.5h4.5v24.1H55V15.5z"/>
			<path id="XMLID_1073_" d="M62.3,20.3h4.4v2.4c1.3-1.7,3.3-2.8,5.8-2.8c4.9,0,7.7,3,7.7,8.3v11.5h-4.5v-11c0-3-1.5-4.9-4.4-4.9
				c-2.5,0-4.5,1.8-4.5,5.2v10.6h-4.5V20.3z"/>
			<path id="XMLID_1075_" d="M82.1,20.3h3.3v-2.9l4.5-3.1v6h3.9v4h-3.9v7.2c0,3.4,0.5,3.9,3.9,3.9v4.2h-0.6c-6,0-7.8-1.9-7.8-8.1
				v-7.3h-3.3V20.3z"/>
			<path id="XMLID_1077_" d="M95.3,30c0-5.6,4.4-10.1,10-10.1c5.7,0,9.9,4.2,9.9,9.9v1.7H99.5c0.6,2.7,2.8,4.6,5.9,4.6
				c2.5,0,4.4-1.3,5.3-3.4l3.7,2.1c-1.7,3.1-4.7,5.2-9,5.2C99.4,40,95.3,35.6,95.3,30z M99.8,27.8h11c-0.7-2.6-2.6-4-5.4-4
				C102.6,23.8,100.6,25.4,99.8,27.8z"/>
			<path id="XMLID_1080_" d="M117.2,15.2h4.5v24.4h-4.5V15.2z"/>
			<path id="XMLID_1082_" d="M124.3,15.2h4.5v24.4h-4.5V15.2z"/>
			<path id="XMLID_1084_" d="M133.6,12.8c1.7,0,2.8,1.1,2.8,2.8c0,1.7-1.1,2.8-2.8,2.8c-1.8,0-2.8-1.1-2.8-2.8
				C130.8,13.9,131.9,12.8,133.6,12.8z M131.4,20.3h4.5v19.3h-4.5V20.3z"/>
			<path id="XMLID_1087_" d="M140.6,34.6c1.7,0,2.7,1.1,2.7,2.7c0,1.6-1,2.7-2.7,2.7c-1.7,0-2.7-1.1-2.7-2.7
				C137.9,35.7,138.9,34.6,140.6,34.6z"/>
			<path id="XMLID_1089_" d="M144.6,30c0-6.4,4.7-10.1,9.6-10.1c2.5,0,4.8,1,6.2,2.7v-2.3h4.5v19.3h-4.5v-2.5
				c-1.4,1.8-3.7,2.9-6.3,2.9C149.5,40,144.6,36.3,144.6,30z M160.6,29.9c0-3.3-2.4-5.9-5.8-5.9c-3.3,0-5.8,2.6-5.8,5.9
				c0,3.4,2.5,6,5.8,6C158.2,35.9,160.6,33.2,160.6,29.9z"/>
			<path id="XMLID_1092_" d="M169.6,12.8c1.7,0,2.8,1.1,2.8,2.8c0,1.7-1.1,2.8-2.8,2.8c-1.8,0-2.8-1.1-2.8-2.8
				C166.8,13.9,167.9,12.8,169.6,12.8z M167.4,20.3h4.5v19.3h-4.5V20.3z"/>
		</g>
	</g>
</g>
<g id="Layer_2" class="st1">
	<g class="st2">
		<path id="XMLID_1218_" d="M191.5,4.8h4.5v24.1h-4.5V4.8z"/>
		<path id="XMLID_1220_" d="M198.9,9.5h4.4v2.4c1.3-1.7,3.3-2.8,5.8-2.8c4.9,0,7.7,3,7.7,8.3v11.5h-4.5v-11c0-3-1.5-4.9-4.4-4.9
			c-2.5,0-4.5,1.8-4.5,5.2v10.6h-4.5V9.5z"/>
		<path id="XMLID_1222_" d="M218.6,9.5h3.3V6.6l4.5-3.1v6h3.9v4h-3.9v7.2c0,3.4,0.5,3.9,3.9,3.9v4.2h-0.6c-6,0-7.8-1.9-7.8-8.1v-7.3
			h-3.3V9.5z"/>
		<path id="XMLID_1224_" d="M231.8,19.2c0-5.6,4.4-10.1,10-10.1c5.7,0,9.9,4.2,9.9,9.9v1.7h-15.7c0.6,2.7,2.8,4.6,5.9,4.6
			c2.5,0,4.4-1.3,5.3-3.4L251,24c-1.7,3.1-4.7,5.2-9,5.2C235.9,29.2,231.8,24.8,231.8,19.2z M236.3,17h11c-0.7-2.6-2.6-4-5.4-4
			C239.2,13.1,237.1,14.7,236.3,17z"/>
		<path id="XMLID_1227_" d="M253.8,4.4h4.5v24.4h-4.5V4.4z"/>
		<path id="XMLID_1229_" d="M260.8,4.4h4.5v24.4h-4.5V4.4z"/>
		<path id="XMLID_1231_" d="M270.1,2c1.7,0,2.8,1.1,2.8,2.8c0,1.7-1.1,2.8-2.8,2.8c-1.8,0-2.8-1.1-2.8-2.8
			C267.3,3.1,268.4,2,270.1,2z M267.9,9.5h4.5v19.3h-4.5V9.5z"/>
		<path id="XMLID_1234_" class="st0" d="M277.1,23.9c1.7,0,2.7,1.1,2.7,2.7c0,1.6-1,2.7-2.7,2.7c-1.7,0-2.7-1.1-2.7-2.7
			C274.4,25,275.4,23.9,277.1,23.9z"/>
		<path id="XMLID_1236_" d="M281.2,19.2c0-6.4,4.7-10.1,9.6-10.1c2.5,0,4.8,1,6.2,2.7V9.5h4.5v19.3h-4.5v-2.5
			c-1.4,1.8-3.7,2.9-6.3,2.9C286,29.2,281.2,25.6,281.2,19.2z M297.2,19.1c0-3.3-2.4-5.9-5.8-5.9c-3.3,0-5.8,2.6-5.8,5.9
			c0,3.4,2.5,6,5.8,6C294.7,25.2,297.2,22.5,297.2,19.1z"/>
		<path id="XMLID_1239_" d="M306.2,2c1.7,0,2.8,1.1,2.8,2.8c0,1.7-1.1,2.8-2.8,2.8c-1.8,0-2.8-1.1-2.8-2.8
			C303.4,3.1,304.5,2,306.2,2z M303.9,9.5h4.5v19.3h-4.5V9.5z"/>
	</g>
	<g id="XMLID_3_" class="st2">
		<path id="XMLID_1095_" d="M191.5,4.8h4.5v24.1h-4.5V4.8z"/>
		<path id="XMLID_1097_" d="M198.9,9.5h4.4v2.4c1.3-1.7,3.3-2.8,5.8-2.8c4.9,0,7.7,3,7.7,8.3v11.5h-4.5v-11c0-3-1.5-4.9-4.4-4.9
			c-2.5,0-4.5,1.8-4.5,5.2v10.6h-4.5V9.5z"/>
		<path id="XMLID_1099_" d="M218.6,9.5h3.3V6.6l4.5-3.1v6h3.9v4h-3.9v7.2c0,3.4,0.5,3.9,3.9,3.9v4.2h-0.6c-6,0-7.8-1.9-7.8-8.1v-7.3
			h-3.3V9.5z"/>
		<path id="XMLID_1101_" d="M231.8,19.2c0-5.6,4.4-10.1,10-10.1c5.7,0,9.9,4.2,9.9,9.9v1.7h-15.7c0.6,2.7,2.8,4.6,5.9,4.6
			c2.5,0,4.4-1.3,5.3-3.4L251,24c-1.7,3.1-4.7,5.2-9,5.2C235.9,29.2,231.8,24.8,231.8,19.2z M236.3,17h11c-0.7-2.6-2.6-4-5.4-4
			C239.2,13.1,237.1,14.7,236.3,17z"/>
		<path id="XMLID_1104_" d="M253.8,4.4h4.5v24.4h-4.5V4.4z"/>
		<path id="XMLID_1106_" d="M260.8,4.4h4.5v24.4h-4.5V4.4z"/>
		<path id="XMLID_1108_" d="M270.1,2c1.7,0,2.8,1.1,2.8,2.8c0,1.7-1.1,2.8-2.8,2.8c-1.8,0-2.8-1.1-2.8-2.8
			C267.3,3.1,268.4,2,270.1,2z M267.9,9.5h4.5v19.3h-4.5V9.5z"/>
		<path id="XMLID_1111_" class="st0" d="M277.1,23.9c1.7,0,2.7,1.1,2.7,2.7c0,1.6-1,2.7-2.7,2.7c-1.7,0-2.7-1.1-2.7-2.7
			C274.4,25,275.4,23.9,277.1,23.9z"/>
		<path id="XMLID_1113_" d="M281.2,19.2c0-6.4,4.7-10.1,9.6-10.1c2.5,0,4.8,1,6.2,2.7V9.5h4.5v19.3h-4.5v-2.5
			c-1.4,1.8-3.7,2.9-6.3,2.9C286,29.2,281.2,25.6,281.2,19.2z M297.2,19.1c0-3.3-2.4-5.9-5.8-5.9c-3.3,0-5.8,2.6-5.8,5.9
			c0,3.4,2.5,6,5.8,6C294.7,25.2,297.2,22.5,297.2,19.1z"/>
		<path id="XMLID_1116_" d="M306.2,2c1.7,0,2.8,1.1,2.8,2.8c0,1.7-1.1,2.8-2.8,2.8c-1.8,0-2.8-1.1-2.8-2.8
			C303.4,3.1,304.5,2,306.2,2z M303.9,9.5h4.5v19.3h-4.5V9.5z"/>
	</g>
</g>
<g id="Layer_3" class="st1">
	<g id="XMLID_306_" class="st2">
		<polygon id="XMLID_310_" class="st0" points="13.2,191.2 13.2,155 4,160 4,196.2 		"/>
		<polygon id="XMLID_309_" class="st0" points="22,196.2 47.9,178.1 39.1,173.1 13.2,191.2 		"/>
		<polygon id="XMLID_308_" class="st0" points="40.7,163.1 14.8,145 13.2,155 39.1,173.1 		"/>
	</g>
</g>
<g id="Layer_4" class="st1">
	<g class="st2">
		<path id="XMLID_1242_" class="st3" d="M192.1,49.5h4.5v24.1h-4.5V49.5z"/>
		<path id="XMLID_1244_" class="st3" d="M199.4,54.3h4.4v2.4c1.3-1.7,3.3-2.8,5.8-2.8c4.9,0,7.7,3,7.7,8.3v11.5h-4.5v-11
			c0-3-1.5-4.9-4.4-4.9c-2.5,0-4.5,1.8-4.5,5.2v10.6h-4.5V54.3z"/>
		<path id="XMLID_1246_" class="st3" d="M219.2,54.3h3.3v-2.9l4.5-3.1v6h3.9v4H227v7.2c0,3.4,0.5,3.9,3.9,3.9v4.2h-0.6
			c-6,0-7.8-1.9-7.8-8.1v-7.3h-3.3V54.3z"/>
		<path id="XMLID_1248_" class="st3" d="M232.4,64c0-5.6,4.4-10.1,10-10.1c5.7,0,9.9,4.2,9.9,9.9v1.7h-15.7c0.6,2.7,2.8,4.6,5.9,4.6
			c2.5,0,4.4-1.3,5.3-3.4l3.7,2.1c-1.7,3.1-4.7,5.2-9,5.2C236.5,74,232.4,69.5,232.4,64z M236.9,61.8h11c-0.7-2.6-2.6-4-5.4-4
			C239.8,57.8,237.7,59.4,236.9,61.8z"/>
		<path id="XMLID_1251_" class="st3" d="M254.4,49.2h4.5v24.4h-4.5V49.2z"/>
		<path id="XMLID_1253_" class="st3" d="M261.4,49.2h4.5v24.4h-4.5V49.2z"/>
		<path id="XMLID_1255_" class="st3" d="M270.7,46.7c1.7,0,2.8,1.1,2.8,2.8c0,1.7-1.1,2.8-2.8,2.8c-1.8,0-2.8-1.1-2.8-2.8
			C267.9,47.9,269,46.7,270.7,46.7z M268.5,54.3h4.5v19.3h-4.5V54.3z"/>
		<path id="XMLID_1258_" class="st0" d="M277.7,68.6c1.7,0,2.7,1.1,2.7,2.7c0,1.6-1,2.7-2.7,2.7c-1.7,0-2.7-1.1-2.7-2.7
			C275,69.7,276,68.6,277.7,68.6z"/>
		<path id="XMLID_1260_" class="st3" d="M281.7,63.9c0-6.4,4.7-10.1,9.6-10.1c2.5,0,4.8,1,6.2,2.7v-2.3h4.5v19.3h-4.5v-2.5
			c-1.4,1.8-3.7,2.9-6.3,2.9C286.6,74,281.7,70.3,281.7,63.9z M297.8,63.9c0-3.3-2.4-5.9-5.8-5.9c-3.3,0-5.8,2.6-5.8,5.9
			c0,3.4,2.5,6,5.8,6C295.3,69.9,297.8,67.2,297.8,63.9z"/>
		<path id="XMLID_1263_" class="st3" d="M306.8,46.7c1.7,0,2.8,1.1,2.8,2.8c0,1.7-1.1,2.8-2.8,2.8c-1.8,0-2.8-1.1-2.8-2.8
			C304,47.9,305,46.7,306.8,46.7z M304.5,54.3h4.5v19.3h-4.5V54.3z"/>
	</g>
	<g id="XMLID_636_" class="st2">
		<path id="XMLID_1119_" class="st3" d="M192.1,49.5h4.5v24.1h-4.5V49.5z"/>
		<path id="XMLID_1121_" class="st3" d="M199.4,54.3h4.4v2.4c1.3-1.7,3.3-2.8,5.8-2.8c4.9,0,7.7,3,7.7,8.3v11.5h-4.5v-11
			c0-3-1.5-4.9-4.4-4.9c-2.5,0-4.5,1.8-4.5,5.2v10.6h-4.5V54.3z"/>
		<path id="XMLID_1123_" class="st3" d="M219.2,54.3h3.3v-2.9l4.5-3.1v6h3.9v4H227v7.2c0,3.4,0.5,3.9,3.9,3.9v4.2h-0.6
			c-6,0-7.8-1.9-7.8-8.1v-7.3h-3.3V54.3z"/>
		<path id="XMLID_1125_" class="st3" d="M232.4,64c0-5.6,4.4-10.1,10-10.1c5.7,0,9.9,4.2,9.9,9.9v1.7h-15.7c0.6,2.7,2.8,4.6,5.9,4.6
			c2.5,0,4.4-1.3,5.3-3.4l3.7,2.1c-1.7,3.1-4.7,5.2-9,5.2C236.5,74,232.4,69.5,232.4,64z M236.9,61.8h11c-0.7-2.6-2.6-4-5.4-4
			C239.8,57.8,237.7,59.4,236.9,61.8z"/>
		<path id="XMLID_1128_" class="st3" d="M254.4,49.2h4.5v24.4h-4.5V49.2z"/>
		<path id="XMLID_1130_" class="st3" d="M261.4,49.2h4.5v24.4h-4.5V49.2z"/>
		<path id="XMLID_1132_" class="st3" d="M270.7,46.7c1.7,0,2.8,1.1,2.8,2.8c0,1.7-1.1,2.8-2.8,2.8c-1.8,0-2.8-1.1-2.8-2.8
			C267.9,47.9,269,46.7,270.7,46.7z M268.5,54.3h4.5v19.3h-4.5V54.3z"/>
		<path id="XMLID_1135_" class="st0" d="M277.7,68.6c1.7,0,2.7,1.1,2.7,2.7c0,1.6-1,2.7-2.7,2.7c-1.7,0-2.7-1.1-2.7-2.7
			C275,69.7,276,68.6,277.7,68.6z"/>
		<path id="XMLID_1137_" class="st3" d="M281.7,63.9c0-6.4,4.7-10.1,9.6-10.1c2.5,0,4.8,1,6.2,2.7v-2.3h4.5v19.3h-4.5v-2.5
			c-1.4,1.8-3.7,2.9-6.3,2.9C286.6,74,281.7,70.3,281.7,63.9z M297.8,63.9c0-3.3-2.4-5.9-5.8-5.9c-3.3,0-5.8,2.6-5.8,5.9
			c0,3.4,2.5,6,5.8,6C295.3,69.9,297.8,67.2,297.8,63.9z"/>
		<path id="XMLID_1140_" class="st3" d="M306.8,46.7c1.7,0,2.8,1.1,2.8,2.8c0,1.7-1.1,2.8-2.8,2.8c-1.8,0-2.8-1.1-2.8-2.8
			C304,47.9,305,46.7,306.8,46.7z M304.5,54.3h4.5v19.3h-4.5V54.3z"/>
	</g>
</g>
<g id="Layer_5" class="st1">
	<g id="XMLID_1040_" class="st2">
		<polygon id="XMLID_1044_" class="st0" points="11.2,120.8 11.2,84.5 2.1,89.6 2.1,125.8 		"/>
		<polygon id="XMLID_1043_" class="st0" points="20.1,125.8 46,107.6 37.1,102.7 11.2,120.8 		"/>
		<polygon id="XMLID_1042_" class="st0" points="38.8,92.6 12.9,74.5 11.2,84.5 37.1,102.7 		"/>
		<g>
			<path id="XMLID_1266_" class="st3" d="M54.9,87.7h4.5v24.1h-4.5V87.7z"/>
			<path id="XMLID_1268_" class="st3" d="M62.2,92.4h4.4v2.4c1.3-1.7,3.3-2.8,5.8-2.8c4.9,0,7.7,3,7.7,8.3v11.5h-4.5v-11
				c0-3-1.5-4.9-4.4-4.9c-2.5,0-4.5,1.8-4.5,5.2v10.6h-4.5V92.4z"/>
			<path id="XMLID_1270_" class="st3" d="M82,92.4h3.3v-2.9l4.5-3.1v6h3.9v4h-3.9v7.2c0,3.4,0.5,3.9,3.9,3.9v4.2h-0.6
				c-6,0-7.8-1.9-7.8-8.1v-7.3H82V92.4z"/>
			<path id="XMLID_1272_" class="st3" d="M95.2,102.1c0-5.6,4.4-10.1,10-10.1c5.7,0,9.9,4.2,9.9,9.9v1.7H99.5
				c0.6,2.7,2.8,4.6,5.9,4.6c2.5,0,4.4-1.3,5.3-3.4l3.7,2.1c-1.7,3.1-4.7,5.2-9,5.2C99.3,112.1,95.2,107.7,95.2,102.1z M99.7,99.9
				h11c-0.7-2.6-2.6-4-5.4-4C102.6,96,100.5,97.6,99.7,99.9z"/>
			<path id="XMLID_1275_" class="st3" d="M117.1,87.3h4.5v24.4h-4.5V87.3z"/>
			<path id="XMLID_1277_" class="st3" d="M124.2,87.3h4.5v24.4h-4.5V87.3z"/>
			<path id="XMLID_1279_" class="st3" d="M133.5,84.9c1.7,0,2.8,1.1,2.8,2.8c0,1.7-1.1,2.8-2.8,2.8c-1.8,0-2.8-1.1-2.8-2.8
				C130.7,86,131.8,84.9,133.5,84.9z M131.3,92.4h4.5v19.3h-4.5V92.4z"/>
			<path id="XMLID_1282_" class="st3" d="M140.5,106.8c1.7,0,2.7,1.1,2.7,2.7c0,1.6-1,2.7-2.7,2.7c-1.7,0-2.7-1.1-2.7-2.7
				C137.8,107.9,138.8,106.8,140.5,106.8z"/>
			<path id="XMLID_1284_" class="st3" d="M144.5,102.1c0-6.4,4.7-10.1,9.6-10.1c2.5,0,4.8,1,6.2,2.7v-2.3h4.5v19.3h-4.5v-2.5
				c-1.4,1.8-3.7,2.9-6.3,2.9C149.4,112.1,144.5,108.4,144.5,102.1z M160.5,102c0-3.3-2.4-5.9-5.8-5.9c-3.3,0-5.8,2.6-5.8,5.9
				c0,3.4,2.5,6,5.8,6C158.1,108.1,160.5,105.4,160.5,102z"/>
			<path id="XMLID_1287_" class="st3" d="M169.6,84.9c1.7,0,2.8,1.1,2.8,2.8c0,1.7-1.1,2.8-2.8,2.8c-1.8,0-2.8-1.1-2.8-2.8
				C166.7,86,167.8,84.9,169.6,84.9z M167.3,92.4h4.5v19.3h-4.5V92.4z"/>
		</g>
		<g id="XMLID_1041_">
			<path id="XMLID_1143_" class="st3" d="M54.9,87.7h4.5v24.1h-4.5V87.7z"/>
			<path id="XMLID_1145_" class="st3" d="M62.2,92.4h4.4v2.4c1.3-1.7,3.3-2.8,5.8-2.8c4.9,0,7.7,3,7.7,8.3v11.5h-4.5v-11
				c0-3-1.5-4.9-4.4-4.9c-2.5,0-4.5,1.8-4.5,5.2v10.6h-4.5V92.4z"/>
			<path id="XMLID_1147_" class="st3" d="M82,92.4h3.3v-2.9l4.5-3.1v6h3.9v4h-3.9v7.2c0,3.4,0.5,3.9,3.9,3.9v4.2h-0.6
				c-6,0-7.8-1.9-7.8-8.1v-7.3H82V92.4z"/>
			<path id="XMLID_1149_" class="st3" d="M95.2,102.1c0-5.6,4.4-10.1,10-10.1c5.7,0,9.9,4.2,9.9,9.9v1.7H99.5
				c0.6,2.7,2.8,4.6,5.9,4.6c2.5,0,4.4-1.3,5.3-3.4l3.7,2.1c-1.7,3.1-4.7,5.2-9,5.2C99.3,112.1,95.2,107.7,95.2,102.1z M99.7,99.9
				h11c-0.7-2.6-2.6-4-5.4-4C102.6,96,100.5,97.6,99.7,99.9z"/>
			<path id="XMLID_1152_" class="st3" d="M117.1,87.3h4.5v24.4h-4.5V87.3z"/>
			<path id="XMLID_1154_" class="st3" d="M124.2,87.3h4.5v24.4h-4.5V87.3z"/>
			<path id="XMLID_1156_" class="st3" d="M133.5,84.9c1.7,0,2.8,1.1,2.8,2.8c0,1.7-1.1,2.8-2.8,2.8c-1.8,0-2.8-1.1-2.8-2.8
				C130.7,86,131.8,84.9,133.5,84.9z M131.3,92.4h4.5v19.3h-4.5V92.4z"/>
			<path id="XMLID_1159_" class="st3" d="M140.5,106.8c1.7,0,2.7,1.1,2.7,2.7c0,1.6-1,2.7-2.7,2.7c-1.7,0-2.7-1.1-2.7-2.7
				C137.8,107.9,138.8,106.8,140.5,106.8z"/>
			<path id="XMLID_1161_" class="st3" d="M144.5,102.1c0-6.4,4.7-10.1,9.6-10.1c2.5,0,4.8,1,6.2,2.7v-2.3h4.5v19.3h-4.5v-2.5
				c-1.4,1.8-3.7,2.9-6.3,2.9C149.4,112.1,144.5,108.4,144.5,102.1z M160.5,102c0-3.3-2.4-5.9-5.8-5.9c-3.3,0-5.8,2.6-5.8,5.9
				c0,3.4,2.5,6,5.8,6C158.1,108.1,160.5,105.4,160.5,102z"/>
			<path id="XMLID_1164_" class="st3" d="M169.6,84.9c1.7,0,2.8,1.1,2.8,2.8c0,1.7-1.1,2.8-2.8,2.8c-1.8,0-2.8-1.1-2.8-2.8
				C166.7,86,167.8,84.9,169.6,84.9z M167.3,92.4h4.5v19.3h-4.5V92.4z"/>
		</g>
	</g>
</g>
</svg>
