<?xml version="1.0" encoding="utf-8"?>
<!-- Generator: Adobe Illustrator 19.0.0, SVG Export Plug-In . SVG Version: 6.00 Build 0)  -->
<svg version="1.1" xmlns="http://www.w3.org/2000/svg" xmlns:xlink="http://www.w3.org/1999/xlink" x="0px" y="0px"
	 viewBox="0 0 121.3 30.9" style="enable-background:new 0 0 121.3 30.9;" xml:space="preserve">
<style type="text/css">
	.st0{display:none;}
	.st1{display:inline;}
	.st2{fill:#2F99EA;}
	.st3{fill:#FFFFFF;}
</style>
<g id="Layer_1" class="st0">
	<g id="XMLID_2_" class="st1">
		<polygon id="XMLID_10_" class="st2" points="-178.7,3.7 -178.7,-32.5 -187.9,-27.5 -187.9,8.7 		"/>
		<polygon id="XMLID_9_" class="st2" points="-169.9,8.7 -144,-9.4 -152.8,-14.4 -178.7,3.7 		"/>
		<polygon id="XMLID_8_" class="st2" points="-151.2,-24.4 -177.1,-42.5 -178.7,-32.5 -152.8,-14.4 		"/>
		<g>
			<path id="XMLID_1219_" d="M-135-29.4h4.5v24.1h-4.5V-29.4z"/>
			<path id="XMLID_1221_" d="M-127.7-24.6h4.4v2.4c1.3-1.7,3.3-2.8,5.8-2.8c4.9,0,7.7,3,7.7,8.3v11.5h-4.5v-11c0-3-1.5-4.9-4.4-4.9
				c-2.5,0-4.5,1.8-4.5,5.2v10.6h-4.5V-24.6z"/>
			<path id="XMLID_1223_" d="M-108-24.6h3.3v-2.9l4.5-3.1v6h3.9v4h-3.9v7.2c0,3.4,0.5,3.9,3.9,3.9v4.2h-0.6c-6,0-7.8-1.9-7.8-8.1
				v-7.3h-3.3V-24.6z"/>
			<path id="XMLID_1225_" d="M-94.8-14.9c0-5.6,4.4-10.1,10-10.1c5.7,0,9.9,4.2,9.9,9.9v1.7h-15.7c0.6,2.7,2.8,4.6,5.9,4.6
				c2.5,0,4.4-1.3,5.3-3.4l3.7,2.1c-1.7,3.1-4.7,5.2-9,5.2C-90.6-4.9-94.8-9.3-94.8-14.9z M-90.3-17.1h11c-0.7-2.6-2.6-4-5.4-4
				C-87.4-21.1-89.5-19.5-90.3-17.1z"/>
			<path id="XMLID_1228_" d="M-72.8-29.7h4.5v24.4h-4.5V-29.7z"/>
			<path id="XMLID_1230_" d="M-65.7-29.7h4.5v24.4h-4.5V-29.7z"/>
			<path id="XMLID_1232_" d="M-56.4-32.1c1.7,0,2.8,1.1,2.8,2.8c0,1.7-1.1,2.8-2.8,2.8c-1.8,0-2.8-1.1-2.8-2.8
				C-59.2-31-58.2-32.1-56.4-32.1z M-58.7-24.6h4.5v19.3h-4.5V-24.6z"/>
			<path id="XMLID_1235_" d="M-49.5-10.3c1.7,0,2.7,1.1,2.7,2.7c0,1.6-1,2.7-2.7,2.7c-1.7,0-2.7-1.1-2.7-2.7
				C-52.2-9.2-51.2-10.3-49.5-10.3z"/>
			<path id="XMLID_1237_" d="M-45.4-14.9c0-6.4,4.7-10.1,9.6-10.1c2.5,0,4.8,1,6.2,2.7v-2.3h4.5v19.3h-4.5v-2.5
				c-1.4,1.8-3.7,2.9-6.3,2.9C-40.6-4.9-45.4-8.6-45.4-14.9z M-29.4-15c0-3.3-2.4-5.9-5.8-5.9c-3.3,0-5.8,2.6-5.8,5.9
				c0,3.4,2.5,6,5.8,6C-31.9-9-29.4-11.7-29.4-15z"/>
			<path id="XMLID_1240_" d="M-20.4-32.1c1.7,0,2.8,1.1,2.8,2.8c0,1.7-1.1,2.8-2.8,2.8c-1.8,0-2.8-1.1-2.8-2.8
				C-23.2-31-22.1-32.1-20.4-32.1z M-22.7-24.6h4.5v19.3h-4.5V-24.6z"/>
		</g>
		<g id="XMLID_1_">
			<path id="XMLID_1097_" d="M-135-29.4h4.5v24.1h-4.5V-29.4z"/>
			<path id="XMLID_1099_" d="M-127.7-24.6h4.4v2.4c1.3-1.7,3.3-2.8,5.8-2.8c4.9,0,7.7,3,7.7,8.3v11.5h-4.5v-11c0-3-1.5-4.9-4.4-4.9
				c-2.5,0-4.5,1.8-4.5,5.2v10.6h-4.5V-24.6z"/>
			<path id="XMLID_1101_" d="M-108-24.6h3.3v-2.9l4.5-3.1v6h3.9v4h-3.9v7.2c0,3.4,0.5,3.9,3.9,3.9v4.2h-0.6c-6,0-7.8-1.9-7.8-8.1
				v-7.3h-3.3V-24.6z"/>
			<path id="XMLID_1103_" d="M-94.8-14.9c0-5.6,4.4-10.1,10-10.1c5.7,0,9.9,4.2,9.9,9.9v1.7h-15.7c0.6,2.7,2.8,4.6,5.9,4.6
				c2.5,0,4.4-1.3,5.3-3.4l3.7,2.1c-1.7,3.1-4.7,5.2-9,5.2C-90.6-4.9-94.8-9.3-94.8-14.9z M-90.3-17.1h11c-0.7-2.6-2.6-4-5.4-4
				C-87.4-21.1-89.5-19.5-90.3-17.1z"/>
			<path id="XMLID_1106_" d="M-72.8-29.7h4.5v24.4h-4.5V-29.7z"/>
			<path id="XMLID_1108_" d="M-65.7-29.7h4.5v24.4h-4.5V-29.7z"/>
			<path id="XMLID_1110_" d="M-56.4-32.1c1.7,0,2.8,1.1,2.8,2.8c0,1.7-1.1,2.8-2.8,2.8c-1.8,0-2.8-1.1-2.8-2.8
				C-59.2-31-58.2-32.1-56.4-32.1z M-58.7-24.6h4.5v19.3h-4.5V-24.6z"/>
			<path id="XMLID_1113_" d="M-49.5-10.3c1.7,0,2.7,1.1,2.7,2.7c0,1.6-1,2.7-2.7,2.7c-1.7,0-2.7-1.1-2.7-2.7
				C-52.2-9.2-51.2-10.3-49.5-10.3z"/>
			<path id="XMLID_1115_" d="M-45.4-14.9c0-6.4,4.7-10.1,9.6-10.1c2.5,0,4.8,1,6.2,2.7v-2.3h4.5v19.3h-4.5v-2.5
				c-1.4,1.8-3.7,2.9-6.3,2.9C-40.6-4.9-45.4-8.6-45.4-14.9z M-29.4-15c0-3.3-2.4-5.9-5.8-5.9c-3.3,0-5.8,2.6-5.8,5.9
				c0,3.4,2.5,6,5.8,6C-31.9-9-29.4-11.7-29.4-15z"/>
			<path id="XMLID_1118_" d="M-20.4-32.1c1.7,0,2.8,1.1,2.8,2.8c0,1.7-1.1,2.8-2.8,2.8c-1.8,0-2.8-1.1-2.8-2.8
				C-23.2-31-22.1-32.1-20.4-32.1z M-22.7-24.6h4.5v19.3h-4.5V-24.6z"/>
		</g>
	</g>
</g>
<g id="Layer_2" class="st0">
	<g class="st1">
		<path id="XMLID_1243_" d="M1.5-40.1H6v24.1H1.5V-40.1z"/>
		<path id="XMLID_1245_" d="M8.8-35.4h4.4v2.4c1.3-1.7,3.3-2.8,5.8-2.8c4.9,0,7.7,3,7.7,8.3v11.5h-4.5v-11c0-3-1.5-4.9-4.4-4.9
			c-2.5,0-4.5,1.8-4.5,5.2v10.6H8.8V-35.4z"/>
		<path id="XMLID_1247_" d="M28.5-35.4h3.3v-2.9l4.5-3.1v6h3.9v4h-3.9v7.2c0,3.4,0.5,3.9,3.9,3.9v4.2h-0.6c-6,0-7.8-1.9-7.8-8.1
			v-7.3h-3.3V-35.4z"/>
		<path id="XMLID_1249_" d="M41.8-25.7c0-5.6,4.4-10.1,10-10.1c5.7,0,9.9,4.2,9.9,9.9v1.7H46c0.6,2.7,2.8,4.6,5.9,4.6
			c2.5,0,4.4-1.3,5.3-3.4l3.7,2.1c-1.7,3.1-4.7,5.2-9,5.2C45.9-15.7,41.8-20.1,41.8-25.7z M46.3-27.9h11c-0.7-2.6-2.6-4-5.4-4
			C49.1-31.8,47.1-30.2,46.3-27.9z"/>
		<path id="XMLID_1252_" d="M63.7-40.5h4.5v24.4h-4.5V-40.5z"/>
		<path id="XMLID_1254_" d="M70.8-40.5h4.5v24.4h-4.5V-40.5z"/>
		<path id="XMLID_1256_" d="M80.1-42.9c1.7,0,2.8,1.1,2.8,2.8c0,1.7-1.1,2.8-2.8,2.8c-1.8,0-2.8-1.1-2.8-2.8
			C77.3-41.8,78.4-42.9,80.1-42.9z M77.8-35.4h4.5v19.3h-4.5V-35.4z"/>
		<path id="XMLID_1259_" class="st2" d="M87.1-21c1.7,0,2.7,1.1,2.7,2.7c0,1.6-1,2.7-2.7,2.7c-1.7,0-2.7-1.1-2.7-2.7
			C84.3-19.9,85.4-21,87.1-21z"/>
		<path id="XMLID_1261_" d="M91.1-25.7c0-6.4,4.7-10.1,9.6-10.1c2.5,0,4.8,1,6.2,2.7v-2.3h4.5v19.3h-4.5v-2.5
			c-1.4,1.8-3.7,2.9-6.3,2.9C96-15.7,91.1-19.4,91.1-25.7z M107.1-25.8c0-3.3-2.4-5.9-5.8-5.9c-3.3,0-5.8,2.6-5.8,5.9
			c0,3.4,2.5,6,5.8,6C104.7-19.8,107.1-22.4,107.1-25.8z"/>
		<path id="XMLID_1264_" d="M116.1-42.9c1.7,0,2.8,1.1,2.8,2.8c0,1.7-1.1,2.8-2.8,2.8c-1.8,0-2.8-1.1-2.8-2.8
			C113.3-41.8,114.4-42.9,116.1-42.9z M113.9-35.4h4.5v19.3h-4.5V-35.4z"/>
	</g>
	<g id="XMLID_3_" class="st1">
		<path id="XMLID_1121_" d="M1.5-40.1H6v24.1H1.5V-40.1z"/>
		<path id="XMLID_1123_" d="M8.8-35.4h4.4v2.4c1.3-1.7,3.3-2.8,5.8-2.8c4.9,0,7.7,3,7.7,8.3v11.5h-4.5v-11c0-3-1.5-4.9-4.4-4.9
			c-2.5,0-4.5,1.8-4.5,5.2v10.6H8.8V-35.4z"/>
		<path id="XMLID_1125_" d="M28.5-35.4h3.3v-2.9l4.5-3.1v6h3.9v4h-3.9v7.2c0,3.4,0.5,3.9,3.9,3.9v4.2h-0.6c-6,0-7.8-1.9-7.8-8.1
			v-7.3h-3.3V-35.4z"/>
		<path id="XMLID_1127_" d="M41.8-25.7c0-5.6,4.4-10.1,10-10.1c5.7,0,9.9,4.2,9.9,9.9v1.7H46c0.6,2.7,2.8,4.6,5.9,4.6
			c2.5,0,4.4-1.3,5.3-3.4l3.7,2.1c-1.7,3.1-4.7,5.2-9,5.2C45.9-15.7,41.8-20.1,41.8-25.7z M46.3-27.9h11c-0.7-2.6-2.6-4-5.4-4
			C49.1-31.8,47.1-30.2,46.3-27.9z"/>
		<path id="XMLID_1130_" d="M63.7-40.5h4.5v24.4h-4.5V-40.5z"/>
		<path id="XMLID_1132_" d="M70.8-40.5h4.5v24.4h-4.5V-40.5z"/>
		<path id="XMLID_1134_" d="M80.1-42.9c1.7,0,2.8,1.1,2.8,2.8c0,1.7-1.1,2.8-2.8,2.8c-1.8,0-2.8-1.1-2.8-2.8
			C77.3-41.8,78.4-42.9,80.1-42.9z M77.8-35.4h4.5v19.3h-4.5V-35.4z"/>
		<path id="XMLID_1137_" class="st2" d="M87.1-21c1.7,0,2.7,1.1,2.7,2.7c0,1.6-1,2.7-2.7,2.7c-1.7,0-2.7-1.1-2.7-2.7
			C84.3-19.9,85.4-21,87.1-21z"/>
		<path id="XMLID_1139_" d="M91.1-25.7c0-6.4,4.7-10.1,9.6-10.1c2.5,0,4.8,1,6.2,2.7v-2.3h4.5v19.3h-4.5v-2.5
			c-1.4,1.8-3.7,2.9-6.3,2.9C96-15.7,91.1-19.4,91.1-25.7z M107.1-25.8c0-3.3-2.4-5.9-5.8-5.9c-3.3,0-5.8,2.6-5.8,5.9
			c0,3.4,2.5,6,5.8,6C104.7-19.8,107.1-22.4,107.1-25.8z"/>
		<path id="XMLID_1142_" d="M116.1-42.9c1.7,0,2.8,1.1,2.8,2.8c0,1.7-1.1,2.8-2.8,2.8c-1.8,0-2.8-1.1-2.8-2.8
			C113.3-41.8,114.4-42.9,116.1-42.9z M113.9-35.4h4.5v19.3h-4.5V-35.4z"/>
	</g>
</g>
<g id="Layer_3" class="st0">
	<g id="XMLID_306_" class="st1">
		<polygon id="XMLID_310_" class="st2" points="-176.9,146.3 -176.9,110.1 -186,115.1 -186,151.3 		"/>
		<polygon id="XMLID_309_" class="st2" points="-168,151.3 -142.1,133.2 -151,128.2 -176.9,146.3 		"/>
		<polygon id="XMLID_308_" class="st2" points="-149.3,118.2 -175.2,100 -176.9,110.1 -151,128.2 		"/>
	</g>
</g>
<g id="Layer_4">
	<g id="XMLID_1218_">
		<path id="XMLID_1267_" class="st3" d="M2.1,4.6h4.5v24.1H2.1V4.6z"/>
		<path id="XMLID_1269_" class="st3" d="M9.4,9.4h4.4v2.4c1.3-1.7,3.3-2.8,5.8-2.8c4.9,0,7.7,3,7.7,8.3v11.5h-4.5v-11
			c0-3-1.5-4.9-4.4-4.9c-2.5,0-4.5,1.8-4.5,5.2v10.6H9.4V9.4z"/>
		<path id="XMLID_1271_" class="st3" d="M29.1,9.4h3.3V6.4l4.5-3.1v6h3.9v4h-3.9v7.2c0,3.4,0.5,3.9,3.9,3.9v4.2h-0.6
			c-6,0-7.8-1.9-7.8-8.1v-7.3h-3.3V9.4z"/>
		<path id="XMLID_1273_" class="st3" d="M42.4,19.1c0-5.6,4.4-10.1,10-10.1c5.7,0,9.9,4.2,9.9,9.9v1.7H46.6c0.6,2.7,2.8,4.6,5.9,4.6
			c2.5,0,4.4-1.3,5.3-3.4l3.7,2.1c-1.7,3.1-4.7,5.2-9,5.2C46.5,29.1,42.4,24.6,42.4,19.1z M46.9,16.9h11c-0.7-2.6-2.6-4-5.4-4
			C49.7,12.9,47.7,14.5,46.9,16.9z"/>
		<path id="XMLID_1276_" class="st3" d="M64.3,4.2h4.5v24.4h-4.5V4.2z"/>
		<path id="XMLID_1278_" class="st3" d="M71.4,4.2h4.5v24.4h-4.5V4.2z"/>
		<path id="XMLID_1280_" class="st3" d="M80.7,1.8c1.7,0,2.8,1.1,2.8,2.8c0,1.7-1.1,2.8-2.8,2.8c-1.8,0-2.8-1.1-2.8-2.8
			C77.9,3,79,1.8,80.7,1.8z M78.4,9.4h4.5v19.3h-4.5V9.4z"/>
		<path id="XMLID_1283_" class="st2" d="M87.6,23.7c1.7,0,2.7,1.1,2.7,2.7c0,1.6-1,2.7-2.7,2.7c-1.7,0-2.7-1.1-2.7-2.7
			C84.9,24.8,86,23.7,87.6,23.7z"/>
		<path id="XMLID_1285_" class="st3" d="M91.7,19c0-6.4,4.7-10.1,9.6-10.1c2.5,0,4.8,1,6.2,2.7V9.4h4.5v19.3h-4.5v-2.5
			c-1.4,1.8-3.7,2.9-6.3,2.9C96.6,29.1,91.7,25.4,91.7,19z M107.7,19c0-3.3-2.4-5.9-5.8-5.9c-3.3,0-5.8,2.6-5.8,5.9
			c0,3.4,2.5,6,5.8,6C105.3,25,107.7,22.3,107.7,19z"/>
		<path id="XMLID_1288_" class="st3" d="M116.7,1.8c1.7,0,2.8,1.1,2.8,2.8c0,1.7-1.1,2.8-2.8,2.8c-1.8,0-2.8-1.1-2.8-2.8
			C113.9,3,115,1.8,116.7,1.8z M114.5,9.4h4.5v19.3h-4.5V9.4z"/>
	</g>
	<g id="XMLID_1193_">
		<path id="XMLID_1194_" class="st3" d="M2.1,4.6h4.5v24.1H2.1V4.6z"/>
		<path id="XMLID_1196_" class="st3" d="M9.4,9.4h4.4v2.4c1.3-1.7,3.3-2.8,5.8-2.8c4.9,0,7.7,3,7.7,8.3v11.5h-4.5v-11
			c0-3-1.5-4.9-4.4-4.9c-2.5,0-4.5,1.8-4.5,5.2v10.6H9.4V9.4z"/>
		<path id="XMLID_1198_" class="st3" d="M29.1,9.4h3.3V6.4l4.5-3.1v6h3.9v4h-3.9v7.2c0,3.4,0.5,3.9,3.9,3.9v4.2h-0.6
			c-6,0-7.8-1.9-7.8-8.1v-7.3h-3.3V9.4z"/>
		<path id="XMLID_1200_" class="st3" d="M42.4,19.1c0-5.6,4.4-10.1,10-10.1c5.7,0,9.9,4.2,9.9,9.9v1.7H46.6c0.6,2.7,2.8,4.6,5.9,4.6
			c2.5,0,4.4-1.3,5.3-3.4l3.7,2.1c-1.7,3.1-4.7,5.2-9,5.2C46.5,29.1,42.4,24.6,42.4,19.1z M46.9,16.9h11c-0.7-2.6-2.6-4-5.4-4
			C49.7,12.9,47.7,14.5,46.9,16.9z"/>
		<path id="XMLID_1203_" class="st3" d="M64.3,4.2h4.5v24.4h-4.5V4.2z"/>
		<path id="XMLID_1205_" class="st3" d="M71.4,4.2h4.5v24.4h-4.5V4.2z"/>
		<path id="XMLID_1207_" class="st3" d="M80.7,1.8c1.7,0,2.8,1.1,2.8,2.8c0,1.7-1.1,2.8-2.8,2.8c-1.8,0-2.8-1.1-2.8-2.8
			C77.9,3,79,1.8,80.7,1.8z M78.4,9.4h4.5v19.3h-4.5V9.4z"/>
		<path id="XMLID_1210_" class="st2" d="M87.6,23.7c1.7,0,2.7,1.1,2.7,2.7c0,1.6-1,2.7-2.7,2.7c-1.7,0-2.7-1.1-2.7-2.7
			C84.9,24.8,86,23.7,87.6,23.7z"/>
		<path id="XMLID_1212_" class="st3" d="M91.7,19c0-6.4,4.7-10.1,9.6-10.1c2.5,0,4.8,1,6.2,2.7V9.4h4.5v19.3h-4.5v-2.5
			c-1.4,1.8-3.7,2.9-6.3,2.9C96.6,29.1,91.7,25.4,91.7,19z M107.7,19c0-3.3-2.4-5.9-5.8-5.9c-3.3,0-5.8,2.6-5.8,5.9
			c0,3.4,2.5,6,5.8,6C105.3,25,107.7,22.3,107.7,19z"/>
		<path id="XMLID_1215_" class="st3" d="M116.7,1.8c1.7,0,2.8,1.1,2.8,2.8c0,1.7-1.1,2.8-2.8,2.8c-1.8,0-2.8-1.1-2.8-2.8
			C113.9,3,115,1.8,116.7,1.8z M114.5,9.4h4.5v19.3h-4.5V9.4z"/>
	</g>
	<g id="XMLID_636_">
		<path id="XMLID_1145_" class="st3" d="M2.1,4.6h4.5v24.1H2.1V4.6z"/>
		<path id="XMLID_1147_" class="st3" d="M9.4,9.4h4.4v2.4c1.3-1.7,3.3-2.8,5.8-2.8c4.9,0,7.7,3,7.7,8.3v11.5h-4.5v-11
			c0-3-1.5-4.9-4.4-4.9c-2.5,0-4.5,1.8-4.5,5.2v10.6H9.4V9.4z"/>
		<path id="XMLID_1149_" class="st3" d="M29.1,9.4h3.3V6.4l4.5-3.1v6h3.9v4h-3.9v7.2c0,3.4,0.5,3.9,3.9,3.9v4.2h-0.6
			c-6,0-7.8-1.9-7.8-8.1v-7.3h-3.3V9.4z"/>
		<path id="XMLID_1151_" class="st3" d="M42.4,19.1c0-5.6,4.4-10.1,10-10.1c5.7,0,9.9,4.2,9.9,9.9v1.7H46.6c0.6,2.7,2.8,4.6,5.9,4.6
			c2.5,0,4.4-1.3,5.3-3.4l3.7,2.1c-1.7,3.1-4.7,5.2-9,5.2C46.5,29.1,42.4,24.6,42.4,19.1z M46.9,16.9h11c-0.7-2.6-2.6-4-5.4-4
			C49.7,12.9,47.7,14.5,46.9,16.9z"/>
		<path id="XMLID_1154_" class="st3" d="M64.3,4.2h4.5v24.4h-4.5V4.2z"/>
		<path id="XMLID_1156_" class="st3" d="M71.4,4.2h4.5v24.4h-4.5V4.2z"/>
		<path id="XMLID_1158_" class="st3" d="M80.7,1.8c1.7,0,2.8,1.1,2.8,2.8c0,1.7-1.1,2.8-2.8,2.8c-1.8,0-2.8-1.1-2.8-2.8
			C77.9,3,79,1.8,80.7,1.8z M78.4,9.4h4.5v19.3h-4.5V9.4z"/>
		<path id="XMLID_1161_" class="st2" d="M87.6,23.7c1.7,0,2.7,1.1,2.7,2.7c0,1.6-1,2.7-2.7,2.7c-1.7,0-2.7-1.1-2.7-2.7
			C84.9,24.8,86,23.7,87.6,23.7z"/>
		<path id="XMLID_1163_" class="st3" d="M91.7,19c0-6.4,4.7-10.1,9.6-10.1c2.5,0,4.8,1,6.2,2.7V9.4h4.5v19.3h-4.5v-2.5
			c-1.4,1.8-3.7,2.9-6.3,2.9C96.6,29.1,91.7,25.4,91.7,19z M107.7,19c0-3.3-2.4-5.9-5.8-5.9c-3.3,0-5.8,2.6-5.8,5.9
			c0,3.4,2.5,6,5.8,6C105.3,25,107.7,22.3,107.7,19z"/>
		<path id="XMLID_1166_" class="st3" d="M116.7,1.8c1.7,0,2.8,1.1,2.8,2.8c0,1.7-1.1,2.8-2.8,2.8c-1.8,0-2.8-1.1-2.8-2.8
			C113.9,3,115,1.8,116.7,1.8z M114.5,9.4h4.5v19.3h-4.5V9.4z"/>
	</g>
</g>
<g id="Layer_5" class="st0">
	<g id="XMLID_1040_" class="st1">
		<polygon id="XMLID_1044_" class="st2" points="-178.8,75.8 -178.8,39.6 -188,44.6 -188,80.9 		"/>
		<polygon id="XMLID_1043_" class="st2" points="-170,80.9 -144.1,62.7 -152.9,57.8 -178.8,75.9 		"/>
		<polygon id="XMLID_1042_" class="st2" points="-151.2,47.7 -177.1,29.6 -178.8,39.6 -152.9,57.8 		"/>
		<g>
			<path id="XMLID_1292_" class="st3" d="M-135.1,42.7h4.5v24.1h-4.5V42.7z"/>
			<path id="XMLID_1294_" class="st3" d="M-127.8,47.5h4.4v2.4c1.3-1.7,3.3-2.8,5.8-2.8c4.9,0,7.7,3,7.7,8.3v11.5h-4.5v-11
				c0-3-1.5-4.9-4.4-4.9c-2.5,0-4.5,1.8-4.5,5.2v10.6h-4.5V47.5z"/>
			<path id="XMLID_1296_" class="st3" d="M-108.1,47.5h3.3v-2.9l4.5-3.1v6h3.9v4h-3.9v7.2c0,3.4,0.5,3.9,3.9,3.9v4.2H-97
				c-6,0-7.8-1.9-7.8-8.1v-7.3h-3.3V47.5z"/>
			<path id="XMLID_1298_" class="st3" d="M-94.8,57.2c0-5.6,4.4-10.1,10-10.1c5.7,0,9.9,4.2,9.9,9.9v1.7h-15.7
				c0.6,2.7,2.8,4.6,5.9,4.6c2.5,0,4.4-1.3,5.3-3.4l3.7,2.1c-1.7,3.1-4.7,5.2-9,5.2C-90.7,67.2-94.8,62.8-94.8,57.2z M-90.3,55h11
				c-0.7-2.6-2.6-4-5.4-4C-87.5,51.1-89.6,52.7-90.3,55z"/>
			<path id="XMLID_1301_" class="st3" d="M-72.9,42.4h4.5v24.4h-4.5V42.4z"/>
			<path id="XMLID_1303_" class="st3" d="M-65.8,42.4h4.5v24.4h-4.5V42.4z"/>
			<path id="XMLID_1305_" class="st3" d="M-56.5,40c1.7,0,2.8,1.1,2.8,2.8c0,1.7-1.1,2.8-2.8,2.8c-1.8,0-2.8-1.1-2.8-2.8
				C-59.3,41.1-58.2,40-56.5,40z M-58.8,47.5h4.5v19.3h-4.5V47.5z"/>
			<path id="XMLID_1308_" class="st3" d="M-49.6,61.9c1.7,0,2.7,1.1,2.7,2.7c0,1.6-1,2.7-2.7,2.7c-1.7,0-2.7-1.1-2.7-2.7
				C-52.3,62.9-51.2,61.9-49.6,61.9z"/>
			<path id="XMLID_1310_" class="st3" d="M-45.5,57.2c0-6.4,4.7-10.1,9.6-10.1c2.5,0,4.8,1,6.2,2.7v-2.3h4.5v19.3h-4.5v-2.5
				c-1.4,1.8-3.7,2.9-6.3,2.9C-40.7,67.2-45.5,63.5-45.5,57.2z M-29.5,57.1c0-3.3-2.4-5.9-5.8-5.9c-3.3,0-5.8,2.6-5.8,5.9
				c0,3.4,2.5,6,5.8,6C-31.9,63.1-29.5,60.5-29.5,57.1z"/>
			<path id="XMLID_1313_" class="st3" d="M-20.5,40c1.7,0,2.8,1.1,2.8,2.8c0,1.7-1.1,2.8-2.8,2.8c-1.8,0-2.8-1.1-2.8-2.8
				C-23.3,41.1-22.2,40-20.5,40z M-22.7,47.5h4.5v19.3h-4.5V47.5z"/>
		</g>
		<g id="XMLID_1041_">
			<path id="XMLID_1169_" class="st3" d="M-135.1,42.7h4.5v24.1h-4.5V42.7z"/>
			<path id="XMLID_1171_" class="st3" d="M-127.8,47.5h4.4v2.4c1.3-1.7,3.3-2.8,5.8-2.8c4.9,0,7.7,3,7.7,8.3v11.5h-4.5v-11
				c0-3-1.5-4.9-4.4-4.9c-2.5,0-4.5,1.8-4.5,5.2v10.6h-4.5V47.5z"/>
			<path id="XMLID_1173_" class="st3" d="M-108.1,47.5h3.3v-2.9l4.5-3.1v6h3.9v4h-3.9v7.2c0,3.4,0.5,3.9,3.9,3.9v4.2H-97
				c-6,0-7.8-1.9-7.8-8.1v-7.3h-3.3V47.5z"/>
			<path id="XMLID_1175_" class="st3" d="M-94.8,57.2c0-5.6,4.4-10.1,10-10.1c5.7,0,9.9,4.2,9.9,9.9v1.7h-15.7
				c0.6,2.7,2.8,4.6,5.9,4.6c2.5,0,4.4-1.3,5.3-3.4l3.7,2.1c-1.7,3.1-4.7,5.2-9,5.2C-90.7,67.2-94.8,62.8-94.8,57.2z M-90.3,55h11
				c-0.7-2.6-2.6-4-5.4-4C-87.5,51.1-89.6,52.7-90.3,55z"/>
			<path id="XMLID_1178_" class="st3" d="M-72.9,42.4h4.5v24.4h-4.5V42.4z"/>
			<path id="XMLID_1180_" class="st3" d="M-65.8,42.4h4.5v24.4h-4.5V42.4z"/>
			<path id="XMLID_1182_" class="st3" d="M-56.5,40c1.7,0,2.8,1.1,2.8,2.8c0,1.7-1.1,2.8-2.8,2.8c-1.8,0-2.8-1.1-2.8-2.8
				C-59.3,41.1-58.2,40-56.5,40z M-58.8,47.5h4.5v19.3h-4.5V47.5z"/>
			<path id="XMLID_1185_" class="st3" d="M-49.6,61.9c1.7,0,2.7,1.1,2.7,2.7c0,1.6-1,2.7-2.7,2.7c-1.7,0-2.7-1.1-2.7-2.7
				C-52.3,62.9-51.2,61.9-49.6,61.9z"/>
			<path id="XMLID_1187_" class="st3" d="M-45.5,57.2c0-6.4,4.7-10.1,9.6-10.1c2.5,0,4.8,1,6.2,2.7v-2.3h4.5v19.3h-4.5v-2.5
				c-1.4,1.8-3.7,2.9-6.3,2.9C-40.7,67.2-45.5,63.5-45.5,57.2z M-29.5,57.1c0-3.3-2.4-5.9-5.8-5.9c-3.3,0-5.8,2.6-5.8,5.9
				c0,3.4,2.5,6,5.8,6C-31.9,63.1-29.5,60.5-29.5,57.1z"/>
			<path id="XMLID_1190_" class="st3" d="M-20.5,40c1.7,0,2.8,1.1,2.8,2.8c0,1.7-1.1,2.8-2.8,2.8c-1.8,0-2.8-1.1-2.8-2.8
				C-23.3,41.1-22.2,40-20.5,40z M-22.7,47.5h4.5v19.3h-4.5V47.5z"/>
		</g>
	</g>
</g>
</svg>
