<?xml version="1.0" encoding="utf-8"?>
<!-- Generator: Adobe Illustrator 19.0.0, SVG Export Plug-In . SVG Version: 6.00 Build 0)  -->
<svg version="1.1" xmlns="http://www.w3.org/2000/svg" xmlns:xlink="http://www.w3.org/1999/xlink" x="0px" y="0px"
	 viewBox="0 0 121.3 30.9" style="enable-background:new 0 0 121.3 30.9;" xml:space="preserve">
<style type="text/css">
	.st0{fill:#2F99EA;}
	.st1{fill:#FFFFFF;}
</style>
<g id="Layer_1">
	<g id="XMLID_2_">
		<polygon id="XMLID_10_" class="st0" points="-178.7,48.6 -178.7,12.4 -187.9,17.4 -187.9,53.6 		"/>
		<polygon id="XMLID_9_" class="st0" points="-169.9,53.6 -144,35.5 -152.8,30.5 -178.7,48.6 		"/>
		<polygon id="XMLID_8_" class="st0" points="-151.2,20.5 -177.1,2.4 -178.7,12.4 -152.8,30.5 		"/>
		<g id="XMLID_1257_">
			<path id="XMLID_1258_" d="M-135,15.5h4.5v24.1h-4.5V15.5z"/>
			<path id="XMLID_1260_" d="M-127.7,20.3h4.4v2.4c1.3-1.7,3.3-2.8,5.8-2.8c4.9,0,7.7,3,7.7,8.3v11.5h-4.5v-11c0-3-1.5-4.9-4.4-4.9
				c-2.5,0-4.5,1.8-4.5,5.2v10.6h-4.5V20.3z"/>
			<path id="XMLID_1262_" d="M-108,20.3h3.3v-2.9l4.5-3.1v6h3.9v4h-3.9v7.2c0,3.4,0.5,3.9,3.9,3.9v4.2h-0.6c-6,0-7.8-1.9-7.8-8.1
				v-7.3h-3.3V20.3z"/>
			<path id="XMLID_1264_" d="M-94.8,30c0-5.6,4.4-10.1,10-10.1c5.7,0,9.9,4.2,9.9,9.9v1.7h-15.7c0.6,2.7,2.8,4.6,5.9,4.6
				c2.5,0,4.4-1.3,5.3-3.4l3.7,2.1c-1.7,3.1-4.7,5.2-9,5.2C-90.6,40-94.8,35.6-94.8,30z M-90.3,27.8h11c-0.7-2.6-2.6-4-5.4-4
				C-87.4,23.8-89.5,25.4-90.3,27.8z"/>
			<path id="XMLID_1267_" d="M-72.8,15.2h4.5v24.4h-4.5V15.2z"/>
			<path id="XMLID_1269_" d="M-65.7,15.2h4.5v24.4h-4.5V15.2z"/>
			<path id="XMLID_1271_" d="M-56.4,12.8c1.7,0,2.8,1.1,2.8,2.8c0,1.7-1.1,2.8-2.8,2.8c-1.8,0-2.8-1.1-2.8-2.8
				C-59.2,13.9-58.2,12.8-56.4,12.8z M-58.7,20.3h4.5v19.3h-4.5V20.3z"/>
			<path id="XMLID_1274_" d="M-49.5,34.6c1.7,0,2.7,1.1,2.7,2.7c0,1.6-1,2.7-2.7,2.7c-1.7,0-2.7-1.1-2.7-2.7
				C-52.2,35.7-51.2,34.6-49.5,34.6z"/>
			<path id="XMLID_1276_" d="M-45.4,30c0-6.4,4.7-10.1,9.6-10.1c2.5,0,4.8,1,6.2,2.7v-2.3h4.5v19.3h-4.5v-2.5
				c-1.4,1.8-3.7,2.9-6.3,2.9C-40.6,40-45.4,36.3-45.4,30z M-29.4,29.9c0-3.3-2.4-5.9-5.8-5.9c-3.3,0-5.8,2.6-5.8,5.9
				c0,3.4,2.5,6,5.8,6C-31.9,35.9-29.4,33.2-29.4,29.9z"/>
			<path id="XMLID_1279_" d="M-20.4,12.8c1.7,0,2.8,1.1,2.8,2.8c0,1.7-1.1,2.8-2.8,2.8c-1.8,0-2.8-1.1-2.8-2.8
				C-23.2,13.9-22.1,12.8-20.4,12.8z M-22.7,20.3h4.5v19.3h-4.5V20.3z"/>
		</g>
		<g id="XMLID_1_">
			<path id="XMLID_1136_" d="M-135,15.5h4.5v24.1h-4.5V15.5z"/>
			<path id="XMLID_1138_" d="M-127.7,20.3h4.4v2.4c1.3-1.7,3.3-2.8,5.8-2.8c4.9,0,7.7,3,7.7,8.3v11.5h-4.5v-11c0-3-1.5-4.9-4.4-4.9
				c-2.5,0-4.5,1.8-4.5,5.2v10.6h-4.5V20.3z"/>
			<path id="XMLID_1140_" d="M-108,20.3h3.3v-2.9l4.5-3.1v6h3.9v4h-3.9v7.2c0,3.4,0.5,3.9,3.9,3.9v4.2h-0.6c-6,0-7.8-1.9-7.8-8.1
				v-7.3h-3.3V20.3z"/>
			<path id="XMLID_1142_" d="M-94.8,30c0-5.6,4.4-10.1,10-10.1c5.7,0,9.9,4.2,9.9,9.9v1.7h-15.7c0.6,2.7,2.8,4.6,5.9,4.6
				c2.5,0,4.4-1.3,5.3-3.4l3.7,2.1c-1.7,3.1-4.7,5.2-9,5.2C-90.6,40-94.8,35.6-94.8,30z M-90.3,27.8h11c-0.7-2.6-2.6-4-5.4-4
				C-87.4,23.8-89.5,25.4-90.3,27.8z"/>
			<path id="XMLID_1145_" d="M-72.8,15.2h4.5v24.4h-4.5V15.2z"/>
			<path id="XMLID_1147_" d="M-65.7,15.2h4.5v24.4h-4.5V15.2z"/>
			<path id="XMLID_1149_" d="M-56.4,12.8c1.7,0,2.8,1.1,2.8,2.8c0,1.7-1.1,2.8-2.8,2.8c-1.8,0-2.8-1.1-2.8-2.8
				C-59.2,13.9-58.2,12.8-56.4,12.8z M-58.7,20.3h4.5v19.3h-4.5V20.3z"/>
			<path id="XMLID_1152_" d="M-49.5,34.6c1.7,0,2.7,1.1,2.7,2.7c0,1.6-1,2.7-2.7,2.7c-1.7,0-2.7-1.1-2.7-2.7
				C-52.2,35.7-51.2,34.6-49.5,34.6z"/>
			<path id="XMLID_1154_" d="M-45.4,30c0-6.4,4.7-10.1,9.6-10.1c2.5,0,4.8,1,6.2,2.7v-2.3h4.5v19.3h-4.5v-2.5
				c-1.4,1.8-3.7,2.9-6.3,2.9C-40.6,40-45.4,36.3-45.4,30z M-29.4,29.9c0-3.3-2.4-5.9-5.8-5.9c-3.3,0-5.8,2.6-5.8,5.9
				c0,3.4,2.5,6,5.8,6C-31.9,35.9-29.4,33.2-29.4,29.9z"/>
			<path id="XMLID_1157_" d="M-20.4,12.8c1.7,0,2.8,1.1,2.8,2.8c0,1.7-1.1,2.8-2.8,2.8c-1.8,0-2.8-1.1-2.8-2.8
				C-23.2,13.9-22.1,12.8-20.4,12.8z M-22.7,20.3h4.5v19.3h-4.5V20.3z"/>
		</g>
	</g>
</g>
<g id="Layer_2">
	<g id="XMLID_1282_">
		<path id="XMLID_1283_" d="M1.5,4.8H6v24.1H1.5V4.8z"/>
		<path id="XMLID_1285_" d="M8.8,9.5h4.4v2.4c1.3-1.7,3.3-2.8,5.8-2.8c4.9,0,7.7,3,7.7,8.3v11.5h-4.5v-11c0-3-1.5-4.9-4.4-4.9
			c-2.5,0-4.5,1.8-4.5,5.2v10.6H8.8V9.5z"/>
		<path id="XMLID_1287_" d="M28.5,9.5h3.3V6.6l4.5-3.1v6h3.9v4h-3.9v7.2c0,3.4,0.5,3.9,3.9,3.9v4.2h-0.6c-6,0-7.8-1.9-7.8-8.1v-7.3
			h-3.3V9.5z"/>
		<path id="XMLID_1289_" d="M41.8,19.2c0-5.6,4.4-10.1,10-10.1c5.7,0,9.9,4.2,9.9,9.9v1.7H46c0.6,2.7,2.8,4.6,5.9,4.6
			c2.5,0,4.4-1.3,5.3-3.4L61,24c-1.7,3.1-4.7,5.2-9,5.2C45.9,29.2,41.8,24.8,41.8,19.2z M46.3,17h11c-0.7-2.6-2.6-4-5.4-4
			C49.1,13.1,47.1,14.7,46.3,17z"/>
		<path id="XMLID_1292_" d="M63.7,4.4h4.5v24.4h-4.5V4.4z"/>
		<path id="XMLID_1294_" d="M70.8,4.4h4.5v24.4h-4.5V4.4z"/>
		<path id="XMLID_1296_" d="M80.1,2c1.7,0,2.8,1.1,2.8,2.8c0,1.7-1.1,2.8-2.8,2.8c-1.8,0-2.8-1.1-2.8-2.8C77.3,3.1,78.4,2,80.1,2z
			 M77.8,9.5h4.5v19.3h-4.5V9.5z"/>
		<path id="XMLID_1299_" class="st0" d="M87.1,23.9c1.7,0,2.7,1.1,2.7,2.7c0,1.6-1,2.7-2.7,2.7c-1.7,0-2.7-1.1-2.7-2.7
			C84.3,25,85.4,23.9,87.1,23.9z"/>
		<path id="XMLID_1301_" d="M91.1,19.2c0-6.4,4.7-10.1,9.6-10.1c2.5,0,4.8,1,6.2,2.7V9.5h4.5v19.3h-4.5v-2.5
			c-1.4,1.8-3.7,2.9-6.3,2.9C96,29.2,91.1,25.6,91.1,19.2z M107.1,19.1c0-3.3-2.4-5.9-5.8-5.9c-3.3,0-5.8,2.6-5.8,5.9
			c0,3.4,2.5,6,5.8,6C104.7,25.2,107.1,22.5,107.1,19.1z"/>
		<path id="XMLID_1304_" d="M116.1,2c1.7,0,2.8,1.1,2.8,2.8c0,1.7-1.1,2.8-2.8,2.8c-1.8,0-2.8-1.1-2.8-2.8
			C113.3,3.1,114.4,2,116.1,2z M113.9,9.5h4.5v19.3h-4.5V9.5z"/>
	</g>
	<g id="XMLID_1232_">
		<path id="XMLID_1233_" d="M1.5,4.8H6v24.1H1.5V4.8z"/>
		<path id="XMLID_1235_" d="M8.8,9.5h4.4v2.4c1.3-1.7,3.3-2.8,5.8-2.8c4.9,0,7.7,3,7.7,8.3v11.5h-4.5v-11c0-3-1.5-4.9-4.4-4.9
			c-2.5,0-4.5,1.8-4.5,5.2v10.6H8.8V9.5z"/>
		<path id="XMLID_1237_" d="M28.5,9.5h3.3V6.6l4.5-3.1v6h3.9v4h-3.9v7.2c0,3.4,0.5,3.9,3.9,3.9v4.2h-0.6c-6,0-7.8-1.9-7.8-8.1v-7.3
			h-3.3V9.5z"/>
		<path id="XMLID_1239_" d="M41.8,19.2c0-5.6,4.4-10.1,10-10.1c5.7,0,9.9,4.2,9.9,9.9v1.7H46c0.6,2.7,2.8,4.6,5.9,4.6
			c2.5,0,4.4-1.3,5.3-3.4L61,24c-1.7,3.1-4.7,5.2-9,5.2C45.9,29.2,41.8,24.8,41.8,19.2z M46.3,17h11c-0.7-2.6-2.6-4-5.4-4
			C49.1,13.1,47.1,14.7,46.3,17z"/>
		<path id="XMLID_1242_" d="M63.7,4.4h4.5v24.4h-4.5V4.4z"/>
		<path id="XMLID_1244_" d="M70.8,4.4h4.5v24.4h-4.5V4.4z"/>
		<path id="XMLID_1246_" d="M80.1,2c1.7,0,2.8,1.1,2.8,2.8c0,1.7-1.1,2.8-2.8,2.8c-1.8,0-2.8-1.1-2.8-2.8C77.3,3.1,78.4,2,80.1,2z
			 M77.8,9.5h4.5v19.3h-4.5V9.5z"/>
		<path id="XMLID_1249_" class="st0" d="M87.1,23.9c1.7,0,2.7,1.1,2.7,2.7c0,1.6-1,2.7-2.7,2.7c-1.7,0-2.7-1.1-2.7-2.7
			C84.3,25,85.4,23.9,87.1,23.9z"/>
		<path id="XMLID_1251_" d="M91.1,19.2c0-6.4,4.7-10.1,9.6-10.1c2.5,0,4.8,1,6.2,2.7V9.5h4.5v19.3h-4.5v-2.5
			c-1.4,1.8-3.7,2.9-6.3,2.9C96,29.2,91.1,25.6,91.1,19.2z M107.1,19.1c0-3.3-2.4-5.9-5.8-5.9c-3.3,0-5.8,2.6-5.8,5.9
			c0,3.4,2.5,6,5.8,6C104.7,25.2,107.1,22.5,107.1,19.1z"/>
		<path id="XMLID_1254_" d="M116.1,2c1.7,0,2.8,1.1,2.8,2.8c0,1.7-1.1,2.8-2.8,2.8c-1.8,0-2.8-1.1-2.8-2.8
			C113.3,3.1,114.4,2,116.1,2z M113.9,9.5h4.5v19.3h-4.5V9.5z"/>
	</g>
	<g id="XMLID_3_">
		<path id="XMLID_1160_" d="M1.5,4.8H6v24.1H1.5V4.8z"/>
		<path id="XMLID_1162_" d="M8.8,9.5h4.4v2.4c1.3-1.7,3.3-2.8,5.8-2.8c4.9,0,7.7,3,7.7,8.3v11.5h-4.5v-11c0-3-1.5-4.9-4.4-4.9
			c-2.5,0-4.5,1.8-4.5,5.2v10.6H8.8V9.5z"/>
		<path id="XMLID_1164_" d="M28.5,9.5h3.3V6.6l4.5-3.1v6h3.9v4h-3.9v7.2c0,3.4,0.5,3.9,3.9,3.9v4.2h-0.6c-6,0-7.8-1.9-7.8-8.1v-7.3
			h-3.3V9.5z"/>
		<path id="XMLID_1166_" d="M41.8,19.2c0-5.6,4.4-10.1,10-10.1c5.7,0,9.9,4.2,9.9,9.9v1.7H46c0.6,2.7,2.8,4.6,5.9,4.6
			c2.5,0,4.4-1.3,5.3-3.4L61,24c-1.7,3.1-4.7,5.2-9,5.2C45.9,29.2,41.8,24.8,41.8,19.2z M46.3,17h11c-0.7-2.6-2.6-4-5.4-4
			C49.1,13.1,47.1,14.7,46.3,17z"/>
		<path id="XMLID_1169_" d="M63.7,4.4h4.5v24.4h-4.5V4.4z"/>
		<path id="XMLID_1171_" d="M70.8,4.4h4.5v24.4h-4.5V4.4z"/>
		<path id="XMLID_1173_" d="M80.1,2c1.7,0,2.8,1.1,2.8,2.8c0,1.7-1.1,2.8-2.8,2.8c-1.8,0-2.8-1.1-2.8-2.8C77.3,3.1,78.4,2,80.1,2z
			 M77.8,9.5h4.5v19.3h-4.5V9.5z"/>
		<path id="XMLID_1176_" class="st0" d="M87.1,23.9c1.7,0,2.7,1.1,2.7,2.7c0,1.6-1,2.7-2.7,2.7c-1.7,0-2.7-1.1-2.7-2.7
			C84.3,25,85.4,23.9,87.1,23.9z"/>
		<path id="XMLID_1178_" d="M91.1,19.2c0-6.4,4.7-10.1,9.6-10.1c2.5,0,4.8,1,6.2,2.7V9.5h4.5v19.3h-4.5v-2.5
			c-1.4,1.8-3.7,2.9-6.3,2.9C96,29.2,91.1,25.6,91.1,19.2z M107.1,19.1c0-3.3-2.4-5.9-5.8-5.9c-3.3,0-5.8,2.6-5.8,5.9
			c0,3.4,2.5,6,5.8,6C104.7,25.2,107.1,22.5,107.1,19.1z"/>
		<path id="XMLID_1181_" d="M116.1,2c1.7,0,2.8,1.1,2.8,2.8c0,1.7-1.1,2.8-2.8,2.8c-1.8,0-2.8-1.1-2.8-2.8
			C113.3,3.1,114.4,2,116.1,2z M113.9,9.5h4.5v19.3h-4.5V9.5z"/>
	</g>
</g>
<g id="Layer_3">
	<g id="XMLID_306_">
		<polygon id="XMLID_310_" class="st0" points="-176.9,191.2 -176.9,155 -186,160 -186,196.2 		"/>
		<polygon id="XMLID_309_" class="st0" points="-168,196.2 -142.1,178.1 -151,173.1 -176.9,191.2 		"/>
		<polygon id="XMLID_308_" class="st0" points="-149.3,163.1 -175.2,145 -176.9,155 -151,173.1 		"/>
	</g>
</g>
<g id="Layer_4">
	<g id="XMLID_1307_">
		<path id="XMLID_1308_" class="st1" d="M2.1,49.5h4.5v24.1H2.1V49.5z"/>
		<path id="XMLID_1310_" class="st1" d="M9.4,54.3h4.4v2.4c1.3-1.7,3.3-2.8,5.8-2.8c4.9,0,7.7,3,7.7,8.3v11.5h-4.5v-11
			c0-3-1.5-4.9-4.4-4.9c-2.5,0-4.5,1.8-4.5,5.2v10.6H9.4V54.3z"/>
		<path id="XMLID_1312_" class="st1" d="M29.1,54.3h3.3v-2.9l4.5-3.1v6h3.9v4h-3.9v7.2c0,3.4,0.5,3.9,3.9,3.9v4.2h-0.6
			c-6,0-7.8-1.9-7.8-8.1v-7.3h-3.3V54.3z"/>
		<path id="XMLID_1314_" class="st1" d="M42.4,64c0-5.6,4.4-10.1,10-10.1c5.7,0,9.9,4.2,9.9,9.9v1.7H46.6c0.6,2.7,2.8,4.6,5.9,4.6
			c2.5,0,4.4-1.3,5.3-3.4l3.7,2.1c-1.7,3.1-4.7,5.2-9,5.2C46.5,74,42.4,69.5,42.4,64z M46.9,61.8h11c-0.7-2.6-2.6-4-5.4-4
			C49.7,57.8,47.7,59.4,46.9,61.8z"/>
		<path id="XMLID_1317_" class="st1" d="M64.3,49.2h4.5v24.4h-4.5V49.2z"/>
		<path id="XMLID_1319_" class="st1" d="M71.4,49.2h4.5v24.4h-4.5V49.2z"/>
		<path id="XMLID_1321_" class="st1" d="M80.7,46.7c1.7,0,2.8,1.1,2.8,2.8c0,1.7-1.1,2.8-2.8,2.8c-1.8,0-2.8-1.1-2.8-2.8
			C77.9,47.9,79,46.7,80.7,46.7z M78.4,54.3h4.5v19.3h-4.5V54.3z"/>
		<path id="XMLID_1324_" class="st0" d="M87.6,68.6c1.7,0,2.7,1.1,2.7,2.7c0,1.6-1,2.7-2.7,2.7c-1.7,0-2.7-1.1-2.7-2.7
			C84.9,69.7,86,68.6,87.6,68.6z"/>
		<path id="XMLID_1326_" class="st1" d="M91.7,63.9c0-6.4,4.7-10.1,9.6-10.1c2.5,0,4.8,1,6.2,2.7v-2.3h4.5v19.3h-4.5v-2.5
			c-1.4,1.8-3.7,2.9-6.3,2.9C96.6,74,91.7,70.3,91.7,63.9z M107.7,63.9c0-3.3-2.4-5.9-5.8-5.9c-3.3,0-5.8,2.6-5.8,5.9
			c0,3.4,2.5,6,5.8,6C105.3,69.9,107.7,67.2,107.7,63.9z"/>
		<path id="XMLID_1329_" class="st1" d="M116.7,46.7c1.7,0,2.8,1.1,2.8,2.8c0,1.7-1.1,2.8-2.8,2.8c-1.8,0-2.8-1.1-2.8-2.8
			C113.9,47.9,115,46.7,116.7,46.7z M114.5,54.3h4.5v19.3h-4.5V54.3z"/>
	</g>
	<g id="XMLID_636_">
		<path id="XMLID_1184_" class="st1" d="M2.1,49.5h4.5v24.1H2.1V49.5z"/>
		<path id="XMLID_1186_" class="st1" d="M9.4,54.3h4.4v2.4c1.3-1.7,3.3-2.8,5.8-2.8c4.9,0,7.7,3,7.7,8.3v11.5h-4.5v-11
			c0-3-1.5-4.9-4.4-4.9c-2.5,0-4.5,1.8-4.5,5.2v10.6H9.4V54.3z"/>
		<path id="XMLID_1188_" class="st1" d="M29.1,54.3h3.3v-2.9l4.5-3.1v6h3.9v4h-3.9v7.2c0,3.4,0.5,3.9,3.9,3.9v4.2h-0.6
			c-6,0-7.8-1.9-7.8-8.1v-7.3h-3.3V54.3z"/>
		<path id="XMLID_1190_" class="st1" d="M42.4,64c0-5.6,4.4-10.1,10-10.1c5.7,0,9.9,4.2,9.9,9.9v1.7H46.6c0.6,2.7,2.8,4.6,5.9,4.6
			c2.5,0,4.4-1.3,5.3-3.4l3.7,2.1c-1.7,3.1-4.7,5.2-9,5.2C46.5,74,42.4,69.5,42.4,64z M46.9,61.8h11c-0.7-2.6-2.6-4-5.4-4
			C49.7,57.8,47.7,59.4,46.9,61.8z"/>
		<path id="XMLID_1193_" class="st1" d="M64.3,49.2h4.5v24.4h-4.5V49.2z"/>
		<path id="XMLID_1195_" class="st1" d="M71.4,49.2h4.5v24.4h-4.5V49.2z"/>
		<path id="XMLID_1197_" class="st1" d="M80.7,46.7c1.7,0,2.8,1.1,2.8,2.8c0,1.7-1.1,2.8-2.8,2.8c-1.8,0-2.8-1.1-2.8-2.8
			C77.9,47.9,79,46.7,80.7,46.7z M78.4,54.3h4.5v19.3h-4.5V54.3z"/>
		<path id="XMLID_1200_" class="st0" d="M87.6,68.6c1.7,0,2.7,1.1,2.7,2.7c0,1.6-1,2.7-2.7,2.7c-1.7,0-2.7-1.1-2.7-2.7
			C84.9,69.7,86,68.6,87.6,68.6z"/>
		<path id="XMLID_1202_" class="st1" d="M91.7,63.9c0-6.4,4.7-10.1,9.6-10.1c2.5,0,4.8,1,6.2,2.7v-2.3h4.5v19.3h-4.5v-2.5
			c-1.4,1.8-3.7,2.9-6.3,2.9C96.6,74,91.7,70.3,91.7,63.9z M107.7,63.9c0-3.3-2.4-5.9-5.8-5.9c-3.3,0-5.8,2.6-5.8,5.9
			c0,3.4,2.5,6,5.8,6C105.3,69.9,107.7,67.2,107.7,63.9z"/>
		<path id="XMLID_1205_" class="st1" d="M116.7,46.7c1.7,0,2.8,1.1,2.8,2.8c0,1.7-1.1,2.8-2.8,2.8c-1.8,0-2.8-1.1-2.8-2.8
			C113.9,47.9,115,46.7,116.7,46.7z M114.5,54.3h4.5v19.3h-4.5V54.3z"/>
	</g>
</g>
<g id="Layer_5">
	<g id="XMLID_1040_">
		<polygon id="XMLID_1044_" class="st0" points="-178.8,120.8 -178.8,84.5 -188,89.6 -188,125.8 		"/>
		<polygon id="XMLID_1043_" class="st0" points="-170,125.8 -144.1,107.6 -152.9,102.7 -178.8,120.8 		"/>
		<polygon id="XMLID_1042_" class="st0" points="-151.2,92.6 -177.1,74.5 -178.8,84.5 -152.9,102.7 		"/>
		<g id="XMLID_1332_">
			<path id="XMLID_1333_" class="st1" d="M-135.1,87.7h4.5v24.1h-4.5V87.7z"/>
			<path id="XMLID_1335_" class="st1" d="M-127.8,92.4h4.4v2.4c1.3-1.7,3.3-2.8,5.8-2.8c4.9,0,7.7,3,7.7,8.3v11.5h-4.5v-11
				c0-3-1.5-4.9-4.4-4.9c-2.5,0-4.5,1.8-4.5,5.2v10.6h-4.5V92.4z"/>
			<path id="XMLID_1337_" class="st1" d="M-108.1,92.4h3.3v-2.9l4.5-3.1v6h3.9v4h-3.9v7.2c0,3.4,0.5,3.9,3.9,3.9v4.2H-97
				c-6,0-7.8-1.9-7.8-8.1v-7.3h-3.3V92.4z"/>
			<path id="XMLID_1339_" class="st1" d="M-94.8,102.1c0-5.6,4.4-10.1,10-10.1c5.7,0,9.9,4.2,9.9,9.9v1.7h-15.7
				c0.6,2.7,2.8,4.6,5.9,4.6c2.5,0,4.4-1.3,5.3-3.4l3.7,2.1c-1.7,3.1-4.7,5.2-9,5.2C-90.7,112.1-94.8,107.7-94.8,102.1z M-90.3,99.9
				h11c-0.7-2.6-2.6-4-5.4-4C-87.5,96-89.6,97.6-90.3,99.9z"/>
			<path id="XMLID_1342_" class="st1" d="M-72.9,87.3h4.5v24.4h-4.5V87.3z"/>
			<path id="XMLID_1344_" class="st1" d="M-65.8,87.3h4.5v24.4h-4.5V87.3z"/>
			<path id="XMLID_1346_" class="st1" d="M-56.5,84.9c1.7,0,2.8,1.1,2.8,2.8c0,1.7-1.1,2.8-2.8,2.8c-1.8,0-2.8-1.1-2.8-2.8
				C-59.3,86-58.2,84.9-56.5,84.9z M-58.8,92.4h4.5v19.3h-4.5V92.4z"/>
			<path id="XMLID_1349_" class="st1" d="M-49.6,106.8c1.7,0,2.7,1.1,2.7,2.7c0,1.6-1,2.7-2.7,2.7c-1.7,0-2.7-1.1-2.7-2.7
				C-52.3,107.9-51.2,106.8-49.6,106.8z"/>
			<path id="XMLID_1351_" class="st1" d="M-45.5,102.1c0-6.4,4.7-10.1,9.6-10.1c2.5,0,4.8,1,6.2,2.7v-2.3h4.5v19.3h-4.5v-2.5
				c-1.4,1.8-3.7,2.9-6.3,2.9C-40.7,112.1-45.5,108.4-45.5,102.1z M-29.5,102c0-3.3-2.4-5.9-5.8-5.9c-3.3,0-5.8,2.6-5.8,5.9
				c0,3.4,2.5,6,5.8,6C-31.9,108.1-29.5,105.4-29.5,102z"/>
			<path id="XMLID_1354_" class="st1" d="M-20.5,84.9c1.7,0,2.8,1.1,2.8,2.8c0,1.7-1.1,2.8-2.8,2.8c-1.8,0-2.8-1.1-2.8-2.8
				C-23.3,86-22.2,84.9-20.5,84.9z M-22.7,92.4h4.5v19.3h-4.5V92.4z"/>
		</g>
		<g id="XMLID_1041_">
			<path id="XMLID_1208_" class="st1" d="M-135.1,87.7h4.5v24.1h-4.5V87.7z"/>
			<path id="XMLID_1210_" class="st1" d="M-127.8,92.4h4.4v2.4c1.3-1.7,3.3-2.8,5.8-2.8c4.9,0,7.7,3,7.7,8.3v11.5h-4.5v-11
				c0-3-1.5-4.9-4.4-4.9c-2.5,0-4.5,1.8-4.5,5.2v10.6h-4.5V92.4z"/>
			<path id="XMLID_1212_" class="st1" d="M-108.1,92.4h3.3v-2.9l4.5-3.1v6h3.9v4h-3.9v7.2c0,3.4,0.5,3.9,3.9,3.9v4.2H-97
				c-6,0-7.8-1.9-7.8-8.1v-7.3h-3.3V92.4z"/>
			<path id="XMLID_1214_" class="st1" d="M-94.8,102.1c0-5.6,4.4-10.1,10-10.1c5.7,0,9.9,4.2,9.9,9.9v1.7h-15.7
				c0.6,2.7,2.8,4.6,5.9,4.6c2.5,0,4.4-1.3,5.3-3.4l3.7,2.1c-1.7,3.1-4.7,5.2-9,5.2C-90.7,112.1-94.8,107.7-94.8,102.1z M-90.3,99.9
				h11c-0.7-2.6-2.6-4-5.4-4C-87.5,96-89.6,97.6-90.3,99.9z"/>
			<path id="XMLID_1217_" class="st1" d="M-72.9,87.3h4.5v24.4h-4.5V87.3z"/>
			<path id="XMLID_1219_" class="st1" d="M-65.8,87.3h4.5v24.4h-4.5V87.3z"/>
			<path id="XMLID_1221_" class="st1" d="M-56.5,84.9c1.7,0,2.8,1.1,2.8,2.8c0,1.7-1.1,2.8-2.8,2.8c-1.8,0-2.8-1.1-2.8-2.8
				C-59.3,86-58.2,84.9-56.5,84.9z M-58.8,92.4h4.5v19.3h-4.5V92.4z"/>
			<path id="XMLID_1224_" class="st1" d="M-49.6,106.8c1.7,0,2.7,1.1,2.7,2.7c0,1.6-1,2.7-2.7,2.7c-1.7,0-2.7-1.1-2.7-2.7
				C-52.3,107.9-51.2,106.8-49.6,106.8z"/>
			<path id="XMLID_1226_" class="st1" d="M-45.5,102.1c0-6.4,4.7-10.1,9.6-10.1c2.5,0,4.8,1,6.2,2.7v-2.3h4.5v19.3h-4.5v-2.5
				c-1.4,1.8-3.7,2.9-6.3,2.9C-40.7,112.1-45.5,108.4-45.5,102.1z M-29.5,102c0-3.3-2.4-5.9-5.8-5.9c-3.3,0-5.8,2.6-5.8,5.9
				c0,3.4,2.5,6,5.8,6C-31.9,108.1-29.5,105.4-29.5,102z"/>
			<path id="XMLID_1229_" class="st1" d="M-20.5,84.9c1.7,0,2.8,1.1,2.8,2.8c0,1.7-1.1,2.8-2.8,2.8c-1.8,0-2.8-1.1-2.8-2.8
				C-23.3,86-22.2,84.9-20.5,84.9z M-22.7,92.4h4.5v19.3h-4.5V92.4z"/>
		</g>
	</g>
</g>
</svg>
