<?xml version="1.0" encoding="utf-8"?>
<!-- Generator: Adobe Illustrator 19.0.0, SVG Export Plug-In . SVG Version: 6.00 Build 0)  -->
<svg version="1.1" xmlns="http://www.w3.org/2000/svg" xmlns:xlink="http://www.w3.org/1999/xlink" x="0px" y="0px"
	 viewBox="0 0 50.4 56.3" style="enable-background:new 0 0 50.4 56.3;" xml:space="preserve">
<style type="text/css">
	.st0{display:none;}
	.st1{display:inline;}
	.st2{fill:#2F99EA;}
	.st3{fill:#FFFFFF;}
</style>
<g id="Layer_1" class="st0">
	<g id="XMLID_2_" class="st1">
		<polygon id="XMLID_10_" class="st2" points="11.3,-94.3 11.3,-130.5 2.2,-125.5 2.2,-89.2 		"/>
		<polygon id="XMLID_9_" class="st2" points="20.2,-89.2 46.1,-107.4 37.2,-112.4 11.3,-94.2 		"/>
		<polygon id="XMLID_8_" class="st2" points="38.9,-122.4 13,-140.5 11.3,-130.5 37.2,-112.4 		"/>
		<g>
			<path id="XMLID_1207_" d="M55-127.4h4.5v24.1H55V-127.4z"/>
			<path id="XMLID_1209_" d="M62.3-122.6h4.4v2.4c1.3-1.7,3.3-2.8,5.8-2.8c4.9,0,7.7,3,7.7,8.3v11.5h-4.5v-11c0-3-1.5-4.9-4.4-4.9
				c-2.5,0-4.5,1.8-4.5,5.2v10.6h-4.5V-122.6z"/>
			<path id="XMLID_1211_" d="M82.1-122.6h3.3v-2.9l4.5-3.1v6h3.9v4h-3.9v7.2c0,3.4,0.5,3.9,3.9,3.9v4.2h-0.6c-6,0-7.8-1.9-7.8-8.1
				v-7.3h-3.3V-122.6z"/>
			<path id="XMLID_1213_" d="M95.3-112.9c0-5.6,4.4-10.1,10-10.1c5.7,0,9.9,4.2,9.9,9.9v1.7H99.5c0.6,2.7,2.8,4.6,5.9,4.6
				c2.5,0,4.4-1.3,5.3-3.4l3.7,2.1c-1.7,3.1-4.7,5.2-9,5.2C99.4-102.9,95.3-107.3,95.3-112.9z M99.8-115.1h11c-0.7-2.6-2.6-4-5.4-4
				C102.6-119,100.6-117.5,99.8-115.1z"/>
			<path id="XMLID_1216_" d="M117.2-127.7h4.5v24.4h-4.5V-127.7z"/>
			<path id="XMLID_1218_" d="M124.3-127.7h4.5v24.4h-4.5V-127.7z"/>
			<path id="XMLID_1220_" d="M133.6-130.1c1.7,0,2.8,1.1,2.8,2.8c0,1.7-1.1,2.8-2.8,2.8c-1.8,0-2.8-1.1-2.8-2.8
				C130.8-129,131.9-130.1,133.6-130.1z M131.4-122.6h4.5v19.3h-4.5V-122.6z"/>
			<path id="XMLID_1223_" d="M140.6-108.3c1.7,0,2.7,1.1,2.7,2.7c0,1.6-1,2.7-2.7,2.7c-1.7,0-2.7-1.1-2.7-2.7
				C137.9-107.2,138.9-108.3,140.6-108.3z"/>
			<path id="XMLID_1225_" d="M144.6-112.9c0-6.4,4.7-10.1,9.6-10.1c2.5,0,4.8,1,6.2,2.7v-2.3h4.5v19.3h-4.5v-2.5
				c-1.4,1.8-3.7,2.9-6.3,2.9C149.5-102.9,144.6-106.6,144.6-112.9z M160.6-113c0-3.3-2.4-5.9-5.8-5.9c-3.3,0-5.8,2.6-5.8,5.9
				c0,3.4,2.5,6,5.8,6C158.2-107,160.6-109.6,160.6-113z"/>
			<path id="XMLID_1228_" d="M169.6-130.1c1.7,0,2.8,1.1,2.8,2.8c0,1.7-1.1,2.8-2.8,2.8c-1.8,0-2.8-1.1-2.8-2.8
				C166.8-129,167.9-130.1,169.6-130.1z M167.4-122.6h4.5v19.3h-4.5V-122.6z"/>
		</g>
		<g id="XMLID_1_">
			<path id="XMLID_1110_" d="M55-127.4h4.5v24.1H55V-127.4z"/>
			<path id="XMLID_1112_" d="M62.3-122.6h4.4v2.4c1.3-1.7,3.3-2.8,5.8-2.8c4.9,0,7.7,3,7.7,8.3v11.5h-4.5v-11c0-3-1.5-4.9-4.4-4.9
				c-2.5,0-4.5,1.8-4.5,5.2v10.6h-4.5V-122.6z"/>
			<path id="XMLID_1114_" d="M82.1-122.6h3.3v-2.9l4.5-3.1v6h3.9v4h-3.9v7.2c0,3.4,0.5,3.9,3.9,3.9v4.2h-0.6c-6,0-7.8-1.9-7.8-8.1
				v-7.3h-3.3V-122.6z"/>
			<path id="XMLID_1116_" d="M95.3-112.9c0-5.6,4.4-10.1,10-10.1c5.7,0,9.9,4.2,9.9,9.9v1.7H99.5c0.6,2.7,2.8,4.6,5.9,4.6
				c2.5,0,4.4-1.3,5.3-3.4l3.7,2.1c-1.7,3.1-4.7,5.2-9,5.2C99.4-102.9,95.3-107.3,95.3-112.9z M99.8-115.1h11c-0.7-2.6-2.6-4-5.4-4
				C102.6-119,100.6-117.5,99.8-115.1z"/>
			<path id="XMLID_1119_" d="M117.2-127.7h4.5v24.4h-4.5V-127.7z"/>
			<path id="XMLID_1121_" d="M124.3-127.7h4.5v24.4h-4.5V-127.7z"/>
			<path id="XMLID_1123_" d="M133.6-130.1c1.7,0,2.8,1.1,2.8,2.8c0,1.7-1.1,2.8-2.8,2.8c-1.8,0-2.8-1.1-2.8-2.8
				C130.8-129,131.9-130.1,133.6-130.1z M131.4-122.6h4.5v19.3h-4.5V-122.6z"/>
			<path id="XMLID_1126_" d="M140.6-108.3c1.7,0,2.7,1.1,2.7,2.7c0,1.6-1,2.7-2.7,2.7c-1.7,0-2.7-1.1-2.7-2.7
				C137.9-107.2,138.9-108.3,140.6-108.3z"/>
			<path id="XMLID_1128_" d="M144.6-112.9c0-6.4,4.7-10.1,9.6-10.1c2.5,0,4.8,1,6.2,2.7v-2.3h4.5v19.3h-4.5v-2.5
				c-1.4,1.8-3.7,2.9-6.3,2.9C149.5-102.9,144.6-106.6,144.6-112.9z M160.6-113c0-3.3-2.4-5.9-5.8-5.9c-3.3,0-5.8,2.6-5.8,5.9
				c0,3.4,2.5,6,5.8,6C158.2-107,160.6-109.6,160.6-113z"/>
			<path id="XMLID_1131_" d="M169.6-130.1c1.7,0,2.8,1.1,2.8,2.8c0,1.7-1.1,2.8-2.8,2.8c-1.8,0-2.8-1.1-2.8-2.8
				C166.8-129,167.9-130.1,169.6-130.1z M167.4-122.6h4.5v19.3h-4.5V-122.6z"/>
		</g>
	</g>
</g>
<g id="Layer_2" class="st0">
	<g class="st1">
		<path id="XMLID_1231_" d="M191.5-138.1h4.5v24.1h-4.5V-138.1z"/>
		<path id="XMLID_1233_" d="M198.9-133.3h4.4v2.4c1.3-1.7,3.3-2.8,5.8-2.8c4.9,0,7.7,3,7.7,8.3v11.5h-4.5v-11c0-3-1.5-4.9-4.4-4.9
			c-2.5,0-4.5,1.8-4.5,5.2v10.6h-4.5V-133.3z"/>
		<path id="XMLID_1235_" d="M218.6-133.3h3.3v-2.9l4.5-3.1v6h3.9v4h-3.9v7.2c0,3.4,0.5,3.9,3.9,3.9v4.2h-0.6c-6,0-7.8-1.9-7.8-8.1
			v-7.3h-3.3V-133.3z"/>
		<path id="XMLID_1237_" d="M231.8-123.6c0-5.6,4.4-10.1,10-10.1c5.7,0,9.9,4.2,9.9,9.9v1.7h-15.7c0.6,2.7,2.8,4.6,5.9,4.6
			c2.5,0,4.4-1.3,5.3-3.4l3.7,2.1c-1.7,3.1-4.7,5.2-9,5.2C235.9-113.6,231.8-118,231.8-123.6z M236.3-125.8h11c-0.7-2.6-2.6-4-5.4-4
			C239.2-129.8,237.1-128.2,236.3-125.8z"/>
		<path id="XMLID_1240_" d="M253.8-138.4h4.5v24.4h-4.5V-138.4z"/>
		<path id="XMLID_1242_" d="M260.8-138.4h4.5v24.4h-4.5V-138.4z"/>
		<path id="XMLID_1244_" d="M270.1-140.9c1.7,0,2.8,1.1,2.8,2.8c0,1.7-1.1,2.8-2.8,2.8c-1.8,0-2.8-1.1-2.8-2.8
			C267.3-139.7,268.4-140.9,270.1-140.9z M267.9-133.3h4.5v19.3h-4.5V-133.3z"/>
		<path id="XMLID_1247_" class="st2" d="M277.1-119c1.7,0,2.7,1.1,2.7,2.7c0,1.6-1,2.7-2.7,2.7c-1.7,0-2.7-1.1-2.7-2.7
			C274.4-117.9,275.4-119,277.1-119z"/>
		<path id="XMLID_1249_" d="M281.2-123.7c0-6.4,4.7-10.1,9.6-10.1c2.5,0,4.8,1,6.2,2.7v-2.3h4.5v19.3h-4.5v-2.5
			c-1.4,1.8-3.7,2.9-6.3,2.9C286-113.6,281.2-117.3,281.2-123.7z M297.2-123.7c0-3.3-2.4-5.9-5.8-5.9c-3.3,0-5.8,2.6-5.8,5.9
			c0,3.4,2.5,6,5.8,6C294.7-117.7,297.2-120.4,297.2-123.7z"/>
		<path id="XMLID_1252_" d="M306.2-140.9c1.7,0,2.8,1.1,2.8,2.8c0,1.7-1.1,2.8-2.8,2.8c-1.8,0-2.8-1.1-2.8-2.8
			C303.4-139.7,304.5-140.9,306.2-140.9z M303.9-133.3h4.5v19.3h-4.5V-133.3z"/>
	</g>
	<g id="XMLID_3_" class="st1">
		<path id="XMLID_1134_" d="M191.5-138.1h4.5v24.1h-4.5V-138.1z"/>
		<path id="XMLID_1136_" d="M198.9-133.3h4.4v2.4c1.3-1.7,3.3-2.8,5.8-2.8c4.9,0,7.7,3,7.7,8.3v11.5h-4.5v-11c0-3-1.5-4.9-4.4-4.9
			c-2.5,0-4.5,1.8-4.5,5.2v10.6h-4.5V-133.3z"/>
		<path id="XMLID_1138_" d="M218.6-133.3h3.3v-2.9l4.5-3.1v6h3.9v4h-3.9v7.2c0,3.4,0.5,3.9,3.9,3.9v4.2h-0.6c-6,0-7.8-1.9-7.8-8.1
			v-7.3h-3.3V-133.3z"/>
		<path id="XMLID_1140_" d="M231.8-123.6c0-5.6,4.4-10.1,10-10.1c5.7,0,9.9,4.2,9.9,9.9v1.7h-15.7c0.6,2.7,2.8,4.6,5.9,4.6
			c2.5,0,4.4-1.3,5.3-3.4l3.7,2.1c-1.7,3.1-4.7,5.2-9,5.2C235.9-113.6,231.8-118,231.8-123.6z M236.3-125.8h11c-0.7-2.6-2.6-4-5.4-4
			C239.2-129.8,237.1-128.2,236.3-125.8z"/>
		<path id="XMLID_1143_" d="M253.8-138.4h4.5v24.4h-4.5V-138.4z"/>
		<path id="XMLID_1145_" d="M260.8-138.4h4.5v24.4h-4.5V-138.4z"/>
		<path id="XMLID_1147_" d="M270.1-140.9c1.7,0,2.8,1.1,2.8,2.8c0,1.7-1.1,2.8-2.8,2.8c-1.8,0-2.8-1.1-2.8-2.8
			C267.3-139.7,268.4-140.9,270.1-140.9z M267.9-133.3h4.5v19.3h-4.5V-133.3z"/>
		<path id="XMLID_1150_" class="st2" d="M277.1-119c1.7,0,2.7,1.1,2.7,2.7c0,1.6-1,2.7-2.7,2.7c-1.7,0-2.7-1.1-2.7-2.7
			C274.4-117.9,275.4-119,277.1-119z"/>
		<path id="XMLID_1152_" d="M281.2-123.7c0-6.4,4.7-10.1,9.6-10.1c2.5,0,4.8,1,6.2,2.7v-2.3h4.5v19.3h-4.5v-2.5
			c-1.4,1.8-3.7,2.9-6.3,2.9C286-113.6,281.2-117.3,281.2-123.7z M297.2-123.7c0-3.3-2.4-5.9-5.8-5.9c-3.3,0-5.8,2.6-5.8,5.9
			c0,3.4,2.5,6,5.8,6C294.7-117.7,297.2-120.4,297.2-123.7z"/>
		<path id="XMLID_1155_" d="M306.2-140.9c1.7,0,2.8,1.1,2.8,2.8c0,1.7-1.1,2.8-2.8,2.8c-1.8,0-2.8-1.1-2.8-2.8
			C303.4-139.7,304.5-140.9,306.2-140.9z M303.9-133.3h4.5v19.3h-4.5V-133.3z"/>
	</g>
</g>
<g id="Layer_3">
	<g id="XMLID_306_">
		<polygon id="XMLID_310_" class="st2" points="13.2,48.3 13.2,12.1 4,17.1 4,53.3 		"/>
		<polygon id="XMLID_309_" class="st2" points="22,53.3 47.9,35.2 39.1,30.2 13.2,48.4 		"/>
		<polygon id="XMLID_308_" class="st2" points="40.7,20.2 14.8,2.1 13.2,12.1 39.1,30.2 		"/>
	</g>
</g>
<g id="Layer_4" class="st0">
	<g class="st1">
		<path id="XMLID_1255_" class="st3" d="M192.1-93.4h4.5v24.1h-4.5V-93.4z"/>
		<path id="XMLID_1257_" class="st3" d="M199.4-88.6h4.4v2.4c1.3-1.7,3.3-2.8,5.8-2.8c4.9,0,7.7,3,7.7,8.3v11.5h-4.5v-11
			c0-3-1.5-4.9-4.4-4.9c-2.5,0-4.5,1.8-4.5,5.2v10.6h-4.5V-88.6z"/>
		<path id="XMLID_1259_" class="st3" d="M219.2-88.6h3.3v-2.9l4.5-3.1v6h3.9v4H227v7.2c0,3.4,0.5,3.9,3.9,3.9v4.2h-0.6
			c-6,0-7.8-1.9-7.8-8.1v-7.3h-3.3V-88.6z"/>
		<path id="XMLID_1261_" class="st3" d="M232.4-78.9c0-5.6,4.4-10.1,10-10.1c5.7,0,9.9,4.2,9.9,9.9v1.7h-15.7
			c0.6,2.7,2.8,4.6,5.9,4.6c2.5,0,4.4-1.3,5.3-3.4l3.7,2.1c-1.7,3.1-4.7,5.2-9,5.2C236.5-68.9,232.4-73.3,232.4-78.9z M236.9-81.1
			h11c-0.7-2.6-2.6-4-5.4-4C239.8-85.1,237.7-83.5,236.9-81.1z"/>
		<path id="XMLID_1264_" class="st3" d="M254.4-93.7h4.5v24.4h-4.5V-93.7z"/>
		<path id="XMLID_1266_" class="st3" d="M261.4-93.7h4.5v24.4h-4.5V-93.7z"/>
		<path id="XMLID_1268_" class="st3" d="M270.7-96.1c1.7,0,2.8,1.1,2.8,2.8c0,1.7-1.1,2.8-2.8,2.8c-1.8,0-2.8-1.1-2.8-2.8
			C267.9-95,269-96.1,270.7-96.1z M268.5-88.6h4.5v19.3h-4.5V-88.6z"/>
		<path id="XMLID_1271_" class="st2" d="M277.7-74.3c1.7,0,2.7,1.1,2.7,2.7c0,1.6-1,2.7-2.7,2.7c-1.7,0-2.7-1.1-2.7-2.7
			C275-73.2,276-74.3,277.7-74.3z"/>
		<path id="XMLID_1273_" class="st3" d="M281.7-78.9c0-6.4,4.7-10.1,9.6-10.1c2.5,0,4.8,1,6.2,2.7v-2.3h4.5v19.3h-4.5v-2.5
			c-1.4,1.8-3.7,2.9-6.3,2.9C286.6-68.9,281.7-72.6,281.7-78.9z M297.8-79c0-3.3-2.4-5.9-5.8-5.9c-3.3,0-5.8,2.6-5.8,5.9
			c0,3.4,2.5,6,5.8,6C295.3-73,297.8-75.7,297.8-79z"/>
		<path id="XMLID_1276_" class="st3" d="M306.8-96.1c1.7,0,2.8,1.1,2.8,2.8c0,1.7-1.1,2.8-2.8,2.8c-1.8,0-2.8-1.1-2.8-2.8
			C304-95,305-96.1,306.8-96.1z M304.5-88.6h4.5v19.3h-4.5V-88.6z"/>
	</g>
	<g id="XMLID_636_" class="st1">
		<path id="XMLID_1158_" class="st3" d="M192.1-93.4h4.5v24.1h-4.5V-93.4z"/>
		<path id="XMLID_1160_" class="st3" d="M199.4-88.6h4.4v2.4c1.3-1.7,3.3-2.8,5.8-2.8c4.9,0,7.7,3,7.7,8.3v11.5h-4.5v-11
			c0-3-1.5-4.9-4.4-4.9c-2.5,0-4.5,1.8-4.5,5.2v10.6h-4.5V-88.6z"/>
		<path id="XMLID_1162_" class="st3" d="M219.2-88.6h3.3v-2.9l4.5-3.1v6h3.9v4H227v7.2c0,3.4,0.5,3.9,3.9,3.9v4.2h-0.6
			c-6,0-7.8-1.9-7.8-8.1v-7.3h-3.3V-88.6z"/>
		<path id="XMLID_1164_" class="st3" d="M232.4-78.9c0-5.6,4.4-10.1,10-10.1c5.7,0,9.9,4.2,9.9,9.9v1.7h-15.7
			c0.6,2.7,2.8,4.6,5.9,4.6c2.5,0,4.4-1.3,5.3-3.4l3.7,2.1c-1.7,3.1-4.7,5.2-9,5.2C236.5-68.9,232.4-73.3,232.4-78.9z M236.9-81.1
			h11c-0.7-2.6-2.6-4-5.4-4C239.8-85.1,237.7-83.5,236.9-81.1z"/>
		<path id="XMLID_1167_" class="st3" d="M254.4-93.7h4.5v24.4h-4.5V-93.7z"/>
		<path id="XMLID_1169_" class="st3" d="M261.4-93.7h4.5v24.4h-4.5V-93.7z"/>
		<path id="XMLID_1171_" class="st3" d="M270.7-96.1c1.7,0,2.8,1.1,2.8,2.8c0,1.7-1.1,2.8-2.8,2.8c-1.8,0-2.8-1.1-2.8-2.8
			C267.9-95,269-96.1,270.7-96.1z M268.5-88.6h4.5v19.3h-4.5V-88.6z"/>
		<path id="XMLID_1174_" class="st2" d="M277.7-74.3c1.7,0,2.7,1.1,2.7,2.7c0,1.6-1,2.7-2.7,2.7c-1.7,0-2.7-1.1-2.7-2.7
			C275-73.2,276-74.3,277.7-74.3z"/>
		<path id="XMLID_1176_" class="st3" d="M281.7-78.9c0-6.4,4.7-10.1,9.6-10.1c2.5,0,4.8,1,6.2,2.7v-2.3h4.5v19.3h-4.5v-2.5
			c-1.4,1.8-3.7,2.9-6.3,2.9C286.6-68.9,281.7-72.6,281.7-78.9z M297.8-79c0-3.3-2.4-5.9-5.8-5.9c-3.3,0-5.8,2.6-5.8,5.9
			c0,3.4,2.5,6,5.8,6C295.3-73,297.8-75.7,297.8-79z"/>
		<path id="XMLID_1179_" class="st3" d="M306.8-96.1c1.7,0,2.8,1.1,2.8,2.8c0,1.7-1.1,2.8-2.8,2.8c-1.8,0-2.8-1.1-2.8-2.8
			C304-95,305-96.1,306.8-96.1z M304.5-88.6h4.5v19.3h-4.5V-88.6z"/>
	</g>
</g>
<g id="Layer_5" class="st0">
	<g id="XMLID_1040_" class="st1">
		<polygon id="XMLID_1044_" class="st2" points="11.2,-22.1 11.2,-58.3 2.1,-53.3 2.1,-17.1 		"/>
		<polygon id="XMLID_1043_" class="st2" points="20.1,-17.1 46,-35.2 37.1,-40.2 11.2,-22.1 		"/>
		<polygon id="XMLID_1042_" class="st2" points="38.8,-50.2 12.9,-68.4 11.2,-58.3 37.1,-40.2 		"/>
		<g>
			<path id="XMLID_1279_" class="st3" d="M54.9-55.2h4.5v24.1h-4.5V-55.2z"/>
			<path id="XMLID_1281_" class="st3" d="M62.2-50.4h4.4v2.4c1.3-1.7,3.3-2.8,5.8-2.8c4.9,0,7.7,3,7.7,8.3v11.5h-4.5v-11
				c0-3-1.5-4.9-4.4-4.9c-2.5,0-4.5,1.8-4.5,5.2v10.6h-4.5V-50.4z"/>
			<path id="XMLID_1283_" class="st3" d="M82-50.4h3.3v-2.9l4.5-3.1v6h3.9v4h-3.9v7.2c0,3.4,0.5,3.9,3.9,3.9v4.2h-0.6
				c-6,0-7.8-1.9-7.8-8.1v-7.3H82V-50.4z"/>
			<path id="XMLID_1285_" class="st3" d="M95.2-40.7c0-5.6,4.4-10.1,10-10.1c5.7,0,9.9,4.2,9.9,9.9v1.7H99.5
				c0.6,2.7,2.8,4.6,5.9,4.6c2.5,0,4.4-1.3,5.3-3.4l3.7,2.1c-1.7,3.1-4.7,5.2-9,5.2C99.3-30.7,95.2-35.2,95.2-40.7z M99.7-42.9h11
				c-0.7-2.6-2.6-4-5.4-4C102.6-46.9,100.5-45.3,99.7-42.9z"/>
			<path id="XMLID_1288_" class="st3" d="M117.1-55.5h4.5v24.4h-4.5V-55.5z"/>
			<path id="XMLID_1290_" class="st3" d="M124.2-55.5h4.5v24.4h-4.5V-55.5z"/>
			<path id="XMLID_1292_" class="st3" d="M133.5-58c1.7,0,2.8,1.1,2.8,2.8c0,1.7-1.1,2.8-2.8,2.8c-1.8,0-2.8-1.1-2.8-2.8
				C130.7-56.8,131.8-58,133.5-58z M131.3-50.4h4.5v19.3h-4.5V-50.4z"/>
			<path id="XMLID_1295_" class="st3" d="M140.5-36.1c1.7,0,2.7,1.1,2.7,2.7c0,1.6-1,2.7-2.7,2.7c-1.7,0-2.7-1.1-2.7-2.7
				C137.8-35,138.8-36.1,140.5-36.1z"/>
			<path id="XMLID_1297_" class="st3" d="M144.5-40.8c0-6.4,4.7-10.1,9.6-10.1c2.5,0,4.8,1,6.2,2.7v-2.3h4.5v19.3h-4.5v-2.5
				c-1.4,1.8-3.7,2.9-6.3,2.9C149.4-30.7,144.5-34.4,144.5-40.8z M160.5-40.8c0-3.3-2.4-5.9-5.8-5.9c-3.3,0-5.8,2.6-5.8,5.9
				c0,3.4,2.5,6,5.8,6C158.1-34.8,160.5-37.5,160.5-40.8z"/>
			<path id="XMLID_1300_" class="st3" d="M169.6-58c1.7,0,2.8,1.1,2.8,2.8c0,1.7-1.1,2.8-2.8,2.8c-1.8,0-2.8-1.1-2.8-2.8
				C166.7-56.8,167.8-58,169.6-58z M167.3-50.4h4.5v19.3h-4.5V-50.4z"/>
		</g>
		<g id="XMLID_1041_">
			<path id="XMLID_1182_" class="st3" d="M54.9-55.2h4.5v24.1h-4.5V-55.2z"/>
			<path id="XMLID_1184_" class="st3" d="M62.2-50.4h4.4v2.4c1.3-1.7,3.3-2.8,5.8-2.8c4.9,0,7.7,3,7.7,8.3v11.5h-4.5v-11
				c0-3-1.5-4.9-4.4-4.9c-2.5,0-4.5,1.8-4.5,5.2v10.6h-4.5V-50.4z"/>
			<path id="XMLID_1186_" class="st3" d="M82-50.4h3.3v-2.9l4.5-3.1v6h3.9v4h-3.9v7.2c0,3.4,0.5,3.9,3.9,3.9v4.2h-0.6
				c-6,0-7.8-1.9-7.8-8.1v-7.3H82V-50.4z"/>
			<path id="XMLID_1188_" class="st3" d="M95.2-40.7c0-5.6,4.4-10.1,10-10.1c5.7,0,9.9,4.2,9.9,9.9v1.7H99.5
				c0.6,2.7,2.8,4.6,5.9,4.6c2.5,0,4.4-1.3,5.3-3.4l3.7,2.1c-1.7,3.1-4.7,5.2-9,5.2C99.3-30.7,95.2-35.2,95.2-40.7z M99.7-42.9h11
				c-0.7-2.6-2.6-4-5.4-4C102.6-46.9,100.5-45.3,99.7-42.9z"/>
			<path id="XMLID_1191_" class="st3" d="M117.1-55.5h4.5v24.4h-4.5V-55.5z"/>
			<path id="XMLID_1193_" class="st3" d="M124.2-55.5h4.5v24.4h-4.5V-55.5z"/>
			<path id="XMLID_1195_" class="st3" d="M133.5-58c1.7,0,2.8,1.1,2.8,2.8c0,1.7-1.1,2.8-2.8,2.8c-1.8,0-2.8-1.1-2.8-2.8
				C130.7-56.8,131.8-58,133.5-58z M131.3-50.4h4.5v19.3h-4.5V-50.4z"/>
			<path id="XMLID_1198_" class="st3" d="M140.5-36.1c1.7,0,2.7,1.1,2.7,2.7c0,1.6-1,2.7-2.7,2.7c-1.7,0-2.7-1.1-2.7-2.7
				C137.8-35,138.8-36.1,140.5-36.1z"/>
			<path id="XMLID_1200_" class="st3" d="M144.5-40.8c0-6.4,4.7-10.1,9.6-10.1c2.5,0,4.8,1,6.2,2.7v-2.3h4.5v19.3h-4.5v-2.5
				c-1.4,1.8-3.7,2.9-6.3,2.9C149.4-30.7,144.5-34.4,144.5-40.8z M160.5-40.8c0-3.3-2.4-5.9-5.8-5.9c-3.3,0-5.8,2.6-5.8,5.9
				c0,3.4,2.5,6,5.8,6C158.1-34.8,160.5-37.5,160.5-40.8z"/>
			<path id="XMLID_1203_" class="st3" d="M169.6-58c1.7,0,2.8,1.1,2.8,2.8c0,1.7-1.1,2.8-2.8,2.8c-1.8,0-2.8-1.1-2.8-2.8
				C166.7-56.8,167.8-58,169.6-58z M167.3-50.4h4.5v19.3h-4.5V-50.4z"/>
		</g>
	</g>
</g>
</svg>
